<?xml version="1.0" standalone="no"?>
<!DOCTYPE svg PUBLIC "-//W3C//DTD SVG 1.1//EN" "http://www.w3.org/Graphics/SVG/1.1/DTD/svg11.dtd" >
<!--
2013-9-30: Created.
-->
<svg>
<metadata>
Created by iconfont
</metadata>
<defs>

<font id="iconfont" horiz-adv-x="1024" >
  <font-face
    font-family="iconfont"
    font-weight="500"
    font-stretch="normal"
    units-per-em="1024"
    ascent="896"
    descent="-128"
  />
    <missing-glyph />
    
    <glyph glyph-name="erweima" unicode="&#59008;" d="M544 0l64 0 0-64-64 0 0 64ZM416 480 416 832 64 832l0-352 64 0 0-64 64 0 0 64L416 480zM128 544 128 768l224 0 0-224L128 544zM192 704l96 0 0-96-96 0 0 96ZM608 832l0-352 352 0L960 832 608 832zM896 544l-224 0L672 768l224 0L896 544zM736 704l96 0 0-96-96 0 0 96ZM192 160l96 0 0-96-96 0 0 96ZM64 416l64 0 0-64-64 0 0 64ZM192 416l64 0 0-64-64 0 0 64ZM256 288 64 288l0-352 352 0L416 288l-96 0 0 64L256 352 256 288zM352 224l0-224L128 0l0 224L352 224zM480 800l64 0 0-96-64 0 0 96ZM480 640l64 0 0-64-64 0 0 64ZM672 416 608 416 544 416 544 512 480 512 480 416 320 416 320 352 480 352 544 352 608 352 608 288 672 288 672 352ZM672 288l64 0 0-64-64 0 0 64ZM480 288l64 0 0-96-64 0 0 96ZM480 128l64 0 0-128-64 0 0 128ZM608 192l64 0 0-192-64 0 0 192ZM800 288l160 0 0-64-160 0 0 64ZM896 416l64 0 0-64-64 0 0 64ZM736 416l128 0 0-64-128 0 0 64ZM736 192l64 0 0-64-64 0 0 64ZM896 128 864 128 864 64 928 64 928 128 960 128 960 192 896 192ZM736 64l64 0 0-64-64 0 0 64ZM800 0l160 0 0-64-160 0 0 64Z"  horiz-adv-x="1024" />

    
    <glyph glyph-name="gengduomore12" unicode="&#58968;" d="M1024 384c0 282.763636-229.236364 512-512 512C229.236364 896 0 666.763636 0 384c0-282.763636 229.236364-512 512-512C794.763636-128 1024 101.236364 1024 384zM791.272727 477.090909c51.386182 0 93.090909-41.704727 93.090909-93.090909s-41.704727-93.090909-93.090909-93.090909c-51.432727 0-93.090909 41.658182-93.090909 93.090909S739.84 477.090909 791.272727 477.090909zM232.727273 290.909091c-51.432727 0-93.090909 41.658182-93.090909 93.090909s41.658182 93.090909 93.090909 93.090909c51.386182 0 93.090909-41.704727 93.090909-93.090909S284.113455 290.909091 232.727273 290.909091zM418.909091 384c0 51.432727 41.658182 93.090909 93.090909 93.090909 51.386182 0 93.090909-41.704727 93.090909-93.090909s-41.704727-93.090909-93.090909-93.090909C460.567273 290.909091 418.909091 332.567273 418.909091 384z"  horiz-adv-x="1024" />

    
    <glyph glyph-name="z-weixin" unicode="&#59081;" d="M315.827597 579.305151c-9.555633 0-19.058055-3.88754-25.752524-10.635221-6.693446-6.745634-10.635221-16.142655-10.635221-25.752524 0-9.501398 3.883447-19.004843 10.635221-25.752524 6.747681-6.639211 16.196891-10.582009 25.752524-10.582009 9.504468 0 19.007913 3.942799 25.698289 10.635221 6.747681 6.747681 10.637268 16.249079 10.637268 25.699312 0 9.609869-3.889587 19.005866-10.637268 25.752524C334.83551 575.4176110000001 325.332065 579.305151 315.827597 579.305151L315.827597 579.305151zM315.827597 579.305151M591.231017 383.325641c-7.452739 0-14.852266-3.076058-20.138666-8.316409-5.29254-5.234211-8.372691-12.633738-8.372691-20.136619 0-7.504928 3.080152-14.846126 8.318456-20.138666 5.234211-5.290493 12.739139-8.314363 20.191878-8.314363 7.450692 0 14.84408 3.078105 20.138666 8.314363 5.2864 5.238304 8.31027 12.633738 8.31027 20.138666 0 7.502881-3.076058 14.848173-8.31027 20.136619C606.126262 380.30177100000003 598.623381 383.325641 591.231017 383.325641L591.231017 383.325641zM591.231017 383.325641M501.38985 506.583896c9.501398 0 19.004843 3.942799 25.756617 10.635221 6.691399 6.747681 10.580986 16.249079 10.580986 25.752524 0 9.609869-3.889587 19.006889-10.580986 25.752524-6.807033 6.694469-16.309454 10.582009-25.756617 10.582009-9.555633 0-19.002796-3.88754-25.753547-10.635221-6.747681-6.745634-10.635221-16.142655-10.635221-25.752524 0-9.501398 3.88754-19.004843 10.635221-25.752524C482.387054 510.526695 491.833193 506.583896 501.38985 506.583896L501.38985 506.583896zM501.38985 506.583896M803.840276 815.94164L220.104465 815.94164c-77.313853 0-139.941216-62.844304-139.941216-140.426263l0-583.030753c0-77.585029 62.627363-140.427286 139.941216-140.427286L803.892465-47.94266300000004c77.3159 0 139.943262 62.841234 139.943262 140.427286L943.835727 675.515377C943.781492 753.098359 881.150036 815.94164 803.840276 815.94164L803.840276 815.94164zM404.263765 237.17602699999998c-32.662911 0-59.013045 6.693446-91.732238 13.118785l-91.508133-45.89119 26.186406 78.768995c-65.543785 45.839001-104.740506 104.84693-104.740506 176.707584 0 124.666324 117.913527 222.707244 261.848707 222.707244 128.762619 0 241.547335-78.335113 264.168542-183.887101-8.312316 0.972141-16.73515 1.564635-25.213241 1.564635-124.390032 0-222.596727-92.862991-222.596727-207.209272 0-19.113313 2.967588-37.360909 8.042163-54.906517C420.621315 237.60990800000002 412.470681 237.17602699999998 404.263765 237.17602699999998L404.263765 237.17602699999998zM790.449291 145.44890599999997l19.704784-65.382103-71.803349 39.355333c-26.184359-6.585999-52.5304-13.170974-78.606289-13.170974-124.557854 0-222.654033 85.140099-222.654033 190.041264 0 104.687294 98.097202 190.046381 222.654033 190.046381 117.692492 0 222.432998-85.305875 222.432998-190.046381C882.177436 237.17602699999998 843.035974 184.91168600000003 790.449291 145.44890599999997L790.449291 145.44890599999997zM790.449291 145.44890599999997M733.869668 383.325641c-7.450692 0-14.85022-3.076058-20.138666-8.316409-5.294586-5.234211-8.318456-12.633738-8.318456-20.136619 0-7.504928 3.082198-14.846126 8.318456-20.138666 5.234211-5.290493 12.68695-8.314363 20.138666-8.314363s14.84408 3.078105 20.136619 8.314363c5.290493 5.238304 8.312316 12.633738 8.312316 20.138666 0 7.502881-3.076058 14.848173-8.312316 20.136619C748.772077 380.30177100000003 741.320361 383.325641 733.869668 383.325641L733.869668 383.325641zM733.869668 383.325641"  horiz-adv-x="1024" />

    
    <glyph glyph-name="z-alipay" unicode="&#59084;" d="M807.894 815.551h-587.297c-76.004 0-138.188-62.185-138.188-138.188v-585.569c0-76.002 62.184-138.186 138.188-138.186h587.297c76.002 0 138.184 62.184 138.184 138.186v5.181c0 0-224.554 93.278-338.56 148.555-76.003-93.278-174.46-150.28-276.374-150.28-171.007 0-229.736 150.28-148.552 248.735 17.273 20.73 48.366 41.459 95.006 53.548 74.274 19 191.736-10.361 300.559-46.636 19 36.275 36.27 76.002 48.363 119.188l-338.56-0v34.545h174.463v58.73l-210.735 0v34.548l210.736-0v88.095c0 0 0 15.544 15.543 15.544h84.641v-101.913l209.008 0v-34.546h-209.008v-60.46h171.006c-17.274-65.638-41.453-127.824-72.545-181.369 51.819-18.999 98.455-36.275 133.005-48.368 124.366-41.454 152.003-44.91 152.003-44.91v447.381c0 76.003-62.181 138.188-138.184 138.188zM293.143 347.441c-22.452-1.73-62.185-12.091-84.638-31.091-67.368-58.736-27.639-164.1 107.095-164.1 77.731 0 155.461 50.096 219.372 129.551-88.096 43.185-162.369 74.278-241.83 65.641z"  horiz-adv-x="1024" />

    
    <glyph glyph-name="weixin-copy" unicode="&#59001;" d="M579.867 384.068c-11.67 0-23.344-10.837-23.344-24.178 0-10.839 11.668-21.678 23.344-21.678 17.514 0 30.020 10.839 30.020 21.678 0 13.34-12.505 24.178-30.020 24.178v0zM503.154 496.64c18.345 0 30.020 11.67 30.020 29.185 0 18.345-11.675 29.183-30.020 29.183-17.51 0-34.188-10.839-34.188-29.183-0.001-17.517 16.678-29.185 34.188-29.185v0zM512.326 895.44c-282.655 0-511.788-229.133-511.788-511.788 0-282.653 229.133-511.786 511.788-511.786 282.653 0 511.786 229.133 511.786 511.786 0.001 282.655-229.132 511.788-511.786 511.788v0zM415.602 253.991c-30.855 0-53.369 4.999-82.553 13.341l-84.218-42.53 24.186 71.715c-59.204 41.689-94.228 94.221-94.228 158.428 0 113.403 106.733 200.123 236.814 200.123 115.069 0 217.633-68.377 237.644-165.106-8.338 1.671-15.844 2.502-22.514 2.502-113.403 0-200.954-85.049-200.954-187.613 0-17.508 2.502-33.351 6.671-50.030-6.671-0.829-14.178-0.829-20.849-0.829v0zM763.314 172.276l16.674-60.041-63.371 35.854c-24.18-4.999-47.529-12.505-71.709-12.505-111.737 0-200.123 76.711-200.123 171.769 0 95.058 88.388 171.771 200.123 171.771 105.895 0 200.954-76.713 200.954-171.771 0-53.362-35.854-100.891-82.548-135.078v0zM338.053 555.008c-17.51 0-35.854-10.839-35.854-29.183 0-17.516 18.343-29.19 35.854-29.19 16.679 0 30.020 11.675 30.020 29.19 0 18.343-13.341 29.183-30.020 29.183v0zM710.783 384.068c-12.51 0-23.349-10.837-23.349-24.178 0-10.839 10.839-21.678 23.349-21.678 16.674 0 29.183 10.839 29.183 21.678 0 13.34-12.509 24.178-29.183 24.178v0zM710.783 384.068z"  horiz-adv-x="1024" />

    
    <glyph glyph-name="radio" unicode="&#58970;" d="M512 830.016611c-245.919634 0-446.016611-200.095256-446.016611-446.016611 0-245.952318 200.064292-446.016611 446.016611-446.016611S958.016611 138.047682 958.016611 384C958.016611 629.919634 757.952318 830.016611 512 830.016611zM512 1.983389c-210.655557 0-382.016611 171.392017-382.016611 382.016611 0 210.655557 171.359333 382.016611 382.016611 382.016611 210.624593 0 382.016611-171.359333 382.016611-382.016611C894.016611 173.375407 722.624593 1.983389 512 1.983389zM512 543.99914c-88.223841 0-160.00086-71.775299-160.00086-159.99914s71.775299-160.00086 160.00086-160.00086 160.00086 71.775299 160.00086 160.00086S600.223841 543.99914 512 543.99914z"  horiz-adv-x="1024" />

    
    <glyph glyph-name="zanting" unicode="&#59242;" d="M757.52 822.893h-62.493c-34.526 0-62.498-27.984-62.498-62.511v-749.948c0-34.526 27.974-62.493 62.498-62.493h62.493c34.516 0 62.502 27.968 62.502 62.493v749.953c-0.001 34.524-27.984 62.509-62.502 62.509zM320.054 822.893h-62.502c-34.526 0-62.498-27.984-62.498-62.511v-749.948c0-34.526 27.974-62.493 62.498-62.493h62.502c34.505 0 62.493 27.968 62.493 62.493v749.953c-0.001 34.524-27.984 62.509-62.493 62.509z"  horiz-adv-x="1024" />

    
    <glyph glyph-name="jiantou-copy-copy" unicode="&#58969;" d="M362.57 131.774h364.149c28.44 0 51.491 23.051 51.491 51.491v364.149c0 28.44-23.051 51.491-51.491 51.491s-51.491-23.051-51.491-51.491v-239.829l-349.073 349.073c-20.119 20.119-52.711 20.119-72.831 0s-20.119-52.711 0-72.831l349.073-349.073h-239.829c-14.202 0.001-27.093-5.754-36.415-15.076s-15.094-22.195-15.076-36.415c0-28.44 23.051-51.491 51.491-51.491z"  horiz-adv-x="1000" />

    
    <glyph glyph-name="guanbi1" unicode="&#58952;" d="M512.001 880.322C237.414 880.322 14.82 657.727 14.82 383.14S237.414-114.04 512-114.04s497.18 222.593 497.18 497.18S786.589 880.322 512.002 880.322z m213.211-645.937c17.798-17.803 17.798-46.657 0-64.456-17.798-17.797-46.658-17.797-64.456 0L512.001 318.685 363.241 169.93c-17.799-17.797-46.652-17.797-64.45 0-17.804 17.799-17.804 46.653 0 64.456L447.545 383.14 298.79 531.896c-17.803 17.798-17.803 46.657 0 64.455 17.799 17.798 46.652 17.798 64.45 0l148.761-148.755 148.755 148.755c17.798 17.798 46.658 17.798 64.456 0 17.798-17.798 17.798-46.657 0-64.455L576.456 383.14l148.756-148.755z m0 0"  horiz-adv-x="1024" />

    
    <glyph glyph-name="fanhui" unicode="&#59010;" d="M663.2-14.600000000000023L265 383.6l398.2 398.1 67.9-67.9-330.3-330.2 330.3-330.3z"  horiz-adv-x="1024" />

    
    <glyph glyph-name="bofangliang" unicode="&#58971;" d="M1156.347527 895.999972H113.828271A113.757261 113.757261 0 0 1 0.000001 782.214307V-14.214335000000005a113.771463 113.771463 0 0 1 113.82827-113.743059h1042.519256a113.771463 113.771463 0 0 1 113.771463 113.785664V782.214307A113.757261 113.757261 0 0 1 1156.347527 895.999972z m-764.857807-833.509817V705.509817l556.856703-321.50273z m0 0"  horiz-adv-x="1270" />

    
    <glyph glyph-name="liebiao" unicode="&#58953;" d="M865.28 635.392H187.904c-18.432 0-33.28 14.848-33.28 33.28s14.848 33.28 33.28 33.28H865.28c18.432 0 33.28-14.848 33.28-33.28s-14.848-33.28-33.28-33.28zM865.28 368.64H187.904c-18.432 0-33.28 14.848-33.28 33.28s14.848 33.28 33.28 33.28H865.28c18.432 0 33.28-14.848 33.28-33.28s-14.848-33.28-33.28-33.28zM865.28 74.24H187.904c-18.432 0-33.28 14.848-33.28 33.28s14.848 33.28 33.28 33.28H865.28c18.432 0 33.28-14.848 33.28-33.28s-14.848-33.28-33.28-33.28z"  horiz-adv-x="1024" />

    
    <glyph glyph-name="sousuo" unicode="&#58947;" d="M184.1152 168.8064A384 384 0 1 0 727.1936 711.8848 384 384 0 0 0 184.1152 168.8064z m36.1984 36.1984a332.8 332.8 0 1 1 470.6816 470.6816 332.8 332.8 0 0 1-470.6816-470.6816zM745.2672 223.1296l181.0432-181.0432a51.2 51.2 0 0 0-72.3968-72.3968l-181.0432 181.0432 72.3968 72.3968z"  horiz-adv-x="1024" />

    
    <glyph glyph-name="zhongguohangtiantubiaoheji-weizhuanlunkuo-" unicode="&#58972;" d="M471.746207 88.452414a16.41931 16.41931 0 0 0-8.121379 2.11862 17.655172 17.655172 0 0 0-9.533794 14.830345l-3.001379 79.271724H271.889655a17.655172 17.655172 0 0 0-17.655172 17.655173V629.406897a17.655172 17.655172 0 0 0 17.655172 17.655172h630.995862a17.655172 17.655172 0 0 0 17.655173-17.655172v-427.078621a17.655172 17.655172 0 0 0-17.655173-17.655173H629.406897l-148.126897-93.395862a18.714483 18.714483 0 0 0-9.533793-2.824827zM289.544828 219.983448h178.493793a17.655172 17.655172 0 0 0 17.655172-17.655172l2.471724-65.50069 126.587586 79.977931a17.655172 17.655172 0 0 0 9.533794 2.648276h260.943448V611.751724H289.544828zM437.671724 350.102069a59.674483 59.674483 0 1 0 59.674483 59.674483 59.851034 59.851034 0 0 0-59.674483-59.674483z m0 84.038621a24.364138 24.364138 0 1 1 24.364138-24.364138 24.364138 24.364138 0 0 1-24.364138 24.364138zM602.924138 350.102069a59.674483 59.674483 0 1 0 59.674483 59.674483 59.674483 59.674483 0 0 0-59.674483-59.674483z m0 84.038621a24.364138 24.364138 0 1 1 24.364138-24.364138 24.187586 24.187586 0 0 1-24.364138 24.364138zM752.110345 350.102069a59.674483 59.674483 0 1 0 60.027586 59.674483 59.674483 59.674483 0 0 0-60.027586-59.674483z m0 84.038621a24.364138 24.364138 0 1 1 24.717241-24.364138 24.187586 24.187586 0 0 1-24.717241 24.364138z"  horiz-adv-x="1129" />

    
    <glyph glyph-name="guanbi" unicode="&#58888;" d="M583.168 372.224L958.464 747.52c18.944 18.944 18.944 50.176 0 69.12l-2.048 2.048c-18.944 18.944-50.176 18.944-69.12 0L512 442.88 136.704 818.688c-18.944 18.944-50.176 18.944-69.12 0l-2.048-2.048c-19.456-18.944-19.456-50.176 0-69.12l375.296-375.296L65.536-3.072c-18.944-18.944-18.944-50.176 0-69.12l2.048-2.048c18.944-18.944 50.176-18.944 69.12 0L512 301.056 887.296-74.24c18.944-18.944 50.176-18.944 69.12 0l2.048 2.048c18.944 18.944 18.944 50.176 0 69.12L583.168 372.224z"  horiz-adv-x="1024" />

    
    <glyph glyph-name="bofang" unicode="&#58990;" d="M102.425742 793.606435v-819.148516l614.361387 409.574258zM153.622524 793.606435v-819.148516l614.361387 409.574258zM259.599863 880.128997V61.492449l619.481066 405.478515zM261.135767 706.571906l-1.535904-818.636549L875.497154 296.997647zM204.819306 793.606435m-102.393564 0a102.393565 102.393565 0 1 1 204.787129 0 102.393565 102.393565 0 1 1-204.787129 0ZM819.180694 486.425742c-56.316461 0-102.393565-46.077104-102.393565-102.393565s46.077104-100.345693 102.393565-102.393564c57.852364-2.047871 102.905532 45.053168 102.393564 102.393564-0.511968 56.316461-46.077104 102.393565-102.393564 102.393565zM204.819306 76.851483c-56.316461 0-102.393565-46.077104-102.393564-102.393564s46.077104-100.345693 102.393564-102.393565c53.756621-2.047871 100.857661 45.053168 102.393565 102.393565 1.535903 56.316461-46.077104 102.393565-102.393565 102.393564z"  horiz-adv-x="1024" />

    
    <glyph glyph-name="chakan" unicode="&#58965;" d="M995.474286 449.097143a569.782857 569.782857 0 0 1-95.817143 134.034286 540.708571 540.708571 0 0 1-775.314286 0 569.782857 569.782857 0 0 1-95.817143-134.034286 143.36 143.36 0 0 1 0-130.194286 569.782857 569.782857 0 0 1 95.817143-134.034286 540.708571 540.708571 0 0 1 775.314286 0 569.782857 569.782857 0 0 1 95.817143 134.034286 143.36 143.36 0 0 1 0 130.194286zM512 219.428571a164.571429 164.571429 0 1 0 164.571429 164.571429 164.571429 164.571429 0 0 0-164.571429-164.571429z"  horiz-adv-x="1024" />

    
    <glyph glyph-name="personal_icon_faxian" unicode="&#58896;" d="M892.928 558.08c-20.48 49.152-51.2 94.208-90.112 133.12s-83.968 69.632-133.12 90.112c-51.2 22.528-106.496 32.768-163.84 32.768s-110.592-10.24-163.84-32.768c-49.152-20.48-94.208-51.2-133.12-90.112C174.08 652.288 143.36 607.232 122.88 558.08c-22.528-51.2-32.768-106.496-32.768-163.84s10.24-110.592 32.768-163.84c20.48-49.152 51.2-94.208 90.112-133.12s83.968-69.632 133.12-90.112c51.2-22.528 106.496-32.768 163.84-32.768s110.592 10.24 163.84 32.768c49.152 20.48 94.208 51.2 133.12 90.112s69.632 83.968 90.112 133.12c22.528 51.2 32.768 106.496 32.768 163.84s-14.336 110.592-36.864 163.84z m-145.408 45.056l-153.6-286.72c-2.048-4.096-6.144-8.192-8.192-8.192l-286.72-153.6c-4.096-2.048-6.144-2.048-10.24-2.048-6.144 0-12.288 2.048-16.384 6.144-8.192 8.192-8.192 16.384-4.096 26.624l153.6 286.72c2.048 4.096 6.144 8.192 8.192 8.192l286.72 151.552c4.096 2.048 6.144 2.048 10.24 2.048 6.144 0 12.288-2.048 16.384-6.144 6.144-6.144 8.192-16.384 4.096-24.576zM507.904 435.2c-10.24 0-20.48-4.096-28.672-12.288s-12.288-18.432-12.288-28.672 4.096-20.48 12.288-28.672 18.432-12.288 28.672-12.288 20.48 4.096 28.672 12.288 12.288 18.432 12.288 28.672-4.096 20.48-12.288 28.672c-8.192 6.144-18.432 12.288-28.672 12.288z"  horiz-adv-x="1024" />

    
    <glyph glyph-name="personal_icon_guangao" unicode="&#58897;" d="M417.792 447.488l-40.96-172.032h47.104l4.096 30.72h34.816l4.096-30.72h47.104l-40.96 172.032h-55.296z m16.384-106.496l12.288 71.68 12.288-71.68h-24.576z m202.752 53.248c0 10.24-2.048 18.432-6.144 26.624-4.096 10.24-12.288 18.432-22.528 22.528-2.048 2.048-12.288 4.096-24.576 4.096h-65.536v-172.032h65.536c12.288 0 22.528 2.048 30.72 6.144 8.192 6.144 16.384 14.336 18.432 24.576 2.048 2.048 4.096 10.24 4.096 20.48s2.048 20.48 2.048 30.72c0 16.384 0 26.624-2.048 36.864z m-45.056-59.392c0-6.144-2.048-12.288-2.048-16.384-2.048-4.096-4.096-6.144-6.144-8.192-2.048-2.048-6.144-2.048-10.24-2.048h-8.192v106.496h8.192c4.096 0 8.192 0 10.24-2.048s4.096-4.096 6.144-8.192c2.048-4.096 2.048-10.24 2.048-16.384v-28.672c2.048-8.192 0-16.384 0-24.576zM788.48 732.16h-552.96C184.32 732.16 143.36 691.2 143.36 640v-552.96C143.36 35.84 184.32-5.12 235.52-5.12h552.96c51.2 0 92.16 40.96 92.16 92.16v552.96C880.64 691.2 839.68 732.16 788.48 732.16zM512 164.864c-110.592 0-200.704 90.112-200.704 198.656 0 110.592 90.112 198.656 200.704 198.656s198.656-90.112 198.656-198.656c0-110.592-88.064-198.656-198.656-198.656z"  horiz-adv-x="1024" />

    
    <glyph glyph-name="personal_icon_fujinren" unicode="&#58898;" d="M690.176 191.488h-6.144c-6.144 0-12.288-4.096-16.384-8.192-2.048-4.096-2.048-6.144 0-10.24s4.096-6.144 8.192-6.144c55.296-16.384 86.016-38.912 86.016-61.44 0-40.96-106.496-83.968-264.192-83.968s-264.192 43.008-264.192 83.968c0 22.528 30.72 45.056 81.92 61.44 4.096 2.048 8.192 4.096 8.192 6.144 2.048 4.096 2.048 6.144 0 10.24s-8.192 8.192-16.384 8.192h-6.144c-65.536-20.48-102.4-51.2-102.4-83.968 0-63.488 126.976-110.592 296.96-110.592S798.72 41.984 798.72 105.472c0 34.816-38.912 65.536-108.544 86.016z m-206.848-124.928c4.096-4.096 8.192-10.24 18.432-10.24 12.288 0 14.336 8.192 16.384 10.24 2.048 2.048 184.32 227.328 247.808 339.968 22.528 40.96 32.768 75.776 32.768 122.88C798.72 687.104 665.6 814.08 501.76 814.08S204.8 687.104 204.8 531.456c0-40.96 10.24-86.016 28.672-124.928 53.248-108.544 247.808-337.92 249.856-339.968z m18.432 575.488c63.488 0 114.688-49.152 114.688-110.592s-51.2-110.592-114.688-110.592-114.688 49.152-114.688 110.592 51.2 110.592 114.688 110.592z"  horiz-adv-x="1024" />

    
    <glyph glyph-name="personal_icon_kaitong" unicode="&#58899;" d="M860.16 400.384c-34.816-38.912-98.304-110.592-174.08-194.56l-129.024-143.36c-22.528-24.576-40.96-28.672-55.296-28.672s-32.768 4.096-55.296 28.672L321.536 199.68c-79.872 88.064-147.456 163.84-178.176 198.656l-2.048 2.048c-26.624 38.912-26.624 79.872 2.048 110.592l81.92 92.16c26.624 28.672 51.2 57.344 67.584 75.776C317.44 709.632 337.92 711.68 350.208 711.68H655.36c28.672-2.048 43.008-16.384 55.296-28.672 28.672-28.672 90.112-98.304 126.976-139.264 12.288-14.336 20.48-24.576 24.576-28.672 28.672-34.816 22.528-86.016-2.048-114.688z m-147.456 49.152c-14.336 12.288-36.864 10.24-49.152-4.096l-161.792-174.08-161.792 174.08c-12.288 14.336-34.816 16.384-49.152 4.096-14.336-12.288-16.384-32.768-4.096-47.104l186.368-202.752c8.192-8.192 18.432-12.288 28.672-10.24 10.24 0 20.48 2.048 28.672 10.24l186.368 202.752c12.288 14.336 12.288 34.816-4.096 47.104 2.048 0 0 0 0 0z"  horiz-adv-x="1024" />

    
    <glyph glyph-name="personal_icon_mpguanli" unicode="&#58900;" d="M509.952 535.552c-83.968 0-153.6-67.584-153.6-151.552s67.584-153.6 151.552-153.6 153.6 67.584 153.6 151.552c0 86.016-67.584 153.6-151.552 153.6zM389.12 785.408c14.336 0 28.672-6.144 40.96-16.384 12.288-14.336 51.2-47.104 81.92-47.104s69.632 34.816 81.92 45.056c10.24 10.24 24.576 16.384 40.96 16.384 8.192 0 16.384 0 22.528-4.096h2.048l104.448-59.392h2.048c20.48-16.384 28.672-43.008 18.432-67.584-6.144-12.288-8.192-26.624-10.24-40.96 0-57.344 45.056-102.4 102.4-102.4h4.096c18.432 0 34.816-16.384 40.96-43.008 6.144-26.624 10.24-55.296 10.24-83.968 0-28.672-4.096-57.344-10.24-86.016-4.096-26.624-20.48-45.056-40.96-45.056h-2.048c-57.344 0-102.4-45.056-102.4-102.4 0-14.336 4.096-28.672 10.24-40.96 10.24-22.528 2.048-51.2-18.432-65.536h-2.048l-104.448-59.392h-2.048c-6.144-2.048-14.336-4.096-20.48-4.096-16.384 0-32.768 6.144-45.056 18.432-12.288 14.336-53.248 49.152-83.968 49.152s-67.584-34.816-81.92-49.152c-10.24-12.288-24.576-18.432-40.96-18.432-8.192 0-16.384 0-22.528 4.096h-2.048l-102.4 57.344h-2.048c-20.48 14.336-28.672 43.008-18.432 67.584 6.144 12.288 8.192 26.624 10.24 40.96 0 57.344-45.056 102.4-102.4 102.4h-6.144c-18.432 0-34.816 16.384-38.912 43.008-6.144 26.624-10.24 55.296-10.24 83.968 0 28.672 4.096 57.344 10.24 83.968 4.096 26.624 20.48 43.008 38.912 43.008H143.36c57.344 0 102.4 45.056 102.4 102.4 0 14.336-4.096 28.672-10.24 40.96-10.24 22.528-2.048 51.2 18.432 65.536h2.048l108.544 61.44h2.048c8.192 8.192 14.336 10.24 22.528 10.24z"  horiz-adv-x="1024" />

    
    <glyph glyph-name="personal_icon_mpjia" unicode="&#58901;" d="M163.84 609.28c0 22.528 18.432 40.96 40.96 40.96h593.92c22.528 0 40.96-18.432 40.96-40.96m0-448.512c0-34.816-26.624-63.488-59.392-63.488H223.232C190.464 97.28 163.84 125.952 163.84 160.768v348.16c0 34.816 26.624 63.488 59.392 63.488H778.24c32.768 0 59.392-28.672 59.392-63.488v-30.72c0-12.288-10.24-24.576-22.528-24.576h-30.72c-53.248 0-98.304-47.104-98.304-102.4v-30.72c0-57.344 43.008-102.4 98.304-102.4h30.72c12.288 0 22.528-10.24 22.528-24.576l2.048-32.768z m40.96 149.504c0-16.384-12.288-28.672-26.624-28.672h-67.584c-14.336 0-26.624 12.288-26.624 28.672v49.152c0 16.384 12.288 28.672 26.624 28.672h67.584c14.336 0 26.624-12.288 26.624-28.672v-49.152z m-626.688 202.752h40.96m71.68 0h40.96m73.728 0h40.96m71.68 0h40.96m71.68 0h40.96M253.952 162.816h40.96m73.728 0h40.96m71.68 0h40.96m73.728 0h40.96m71.68 0h40.96"  horiz-adv-x="1024" />

    
    <glyph glyph-name="personal_icon_paihangbang" unicode="&#58902;" d="M806.912 660.48h-24.576v24.576C782.336 711.68 759.808 732.16 733.184 732.16H290.816c-26.624 0-49.152-20.48-49.152-47.104v-24.576h-24.576c-40.96 0-73.728-32.768-73.728-71.68v-47.104c0-38.912 32.768-71.68 73.728-71.68h24.576c0-137.216 108.544-249.856 245.76-262.144v-73.728h-69.632c-10.24 0-18.432-6.144-22.528-16.384l-18.432-47.104c-4.096-12.288 2.048-26.624 14.336-30.72 2.048 0 6.144-2.048 8.192-2.048h223.232c14.336 0 24.576 10.24 24.576 24.576 0 2.048 0 6.144-2.048 8.192l-18.432 47.104c-4.096 10.24-12.288 16.384-22.528 16.384h-69.632v73.728c137.216 12.288 245.76 124.928 245.76 262.144h24.576c40.96 0 73.728 32.768 73.728 71.68V588.8c2.048 38.912-30.72 71.68-71.68 71.68z m-589.824-145.408c-14.336 0-24.576 10.24-24.576 24.576V588.8c0 12.288 10.24 24.576 24.576 24.576h24.576v-96.256h-24.576v-2.048z m389.12 2.048l-38.912-38.912 8.192-55.296c2.048-6.144-2.048-12.288-6.144-14.336h-4.096c-2.048 0-4.096 0-6.144 2.048L512 437.248l-49.152-26.624c0-6.144-6.144-10.24-12.288-8.192-6.144 0-10.24 6.144-10.24 12.288 0 4.096 2.048 6.144 6.144 8.192l10.24 55.296-38.912 38.912c-2.048 2.048-4.096 8.192-2.048 10.24 2.048 4.096 4.096 6.144 8.192 8.192l55.296 8.192 24.576 51.2c2.048 6.144 10.24 8.192 14.336 6.144 2.048-2.048 4.096-2.048 6.144-6.144l24.576-51.2 55.296-8.192c4.096 0 8.192-4.096 8.192-8.192-2.048-2.048-2.048-6.144-6.144-10.24z m225.28 22.528c0-12.288-10.24-24.576-24.576-24.576h-24.576v96.256h24.576c14.336 0 24.576-10.24 24.576-24.576v-47.104z"  horiz-adv-x="1024" />

    
    <glyph glyph-name="personal_icon_picshezhi" unicode="&#58903;" d="M819.2 711.68H202.752C169.984 711.68 143.36 687.104 143.36 656.384v-561.152C143.36 62.464 169.984 35.84 202.752 35.84h622.592c32.768 0 57.344 26.624 57.344 59.392V656.384C880.64 687.104 851.968 711.68 819.2 711.68z m-438.272-83.968c49.152 0 90.112-40.96 90.112-90.112s-40.96-90.112-90.112-90.112-90.112 40.96-90.112 90.112c0 51.2 40.96 90.112 90.112 90.112z m-153.6-520.192c-6.144 0-14.336 2.048-18.432 6.144-12.288 10.24-14.336 28.672-4.096 40.96l135.168 202.752c10.24 12.288 26.624 14.336 38.912 4.096l118.784-88.064 215.04 241.664c10.24 12.288 63.488 71.68 96.256 4.096V105.472c0 2.048-581.632 2.048-581.632 2.048z"  horiz-adv-x="1024" />

    
    <glyph glyph-name="personal_icon_pifu" unicode="&#58904;" d="M366.592 54.272c-22.528 0-38.912 18.432-38.912 38.912V394.24l-32.768-34.816c-6.144-8.192-18.432-12.288-28.672-12.288s-20.48 4.096-26.624 10.24L143.36 449.536c-8.192 8.192-12.288 16.384-12.288 28.672 0 10.24 4.096 20.48 10.24 28.672l147.456 153.6c20.48 20.48 28.672 20.48 32.768 20.48h92.16c24.576 0 28.672-2.048 34.816-6.144l6.144-6.144v-8.192c0-18.432 6.144-32.768 20.48-45.056 12.288-10.24 30.72-18.432 51.2-18.432 40.96 0 69.632 24.576 69.632 61.44v8.192l4.096 6.144c6.144 6.144 10.24 6.144 34.816 6.144h92.16c4.096 0 12.288 0 32.768-20.48l147.456-153.6c8.192-8.192 10.24-18.432 10.24-28.672s-4.096-20.48-12.288-28.672l-94.208-90.112c-8.192-6.144-16.384-10.24-26.624-10.24s-20.48 4.096-28.672 12.288l-32.768 34.816v-301.056c0-22.528-18.432-38.912-38.912-38.912H366.592z"  horiz-adv-x="1024" />

    
    <glyph glyph-name="personal_icon_lxkefu" unicode="&#58905;" d="M516.096 125.952h12.288c40.96 4.096 75.776 32.768 88.064 69.632 0 2.048 0 6.144-4.096 6.144-2.048 2.048-6.144 0-8.192-2.048 0 0-16.384-24.576-79.872-32.768-10.24-2.048-18.432-2.048-26.624-2.048-43.008 0-63.488 16.384-63.488 16.384-2.048 2.048-6.144 2.048-8.192 0s-2.048-4.096-2.048-8.192c20.48-26.624 55.296-47.104 92.16-47.104z m337.92 378.88s-2.048-2.048 0 0C815.104 658.432 673.792 773.12 505.856 773.12c-174.08 0-317.44-120.832-348.16-282.624C126.976 486.4 102.4 459.776 102.4 427.008v-126.976c0-34.816 28.672-65.536 65.536-65.536 20.48 0 38.912 10.24 51.2 24.576 28.672-75.776 88.064-135.168 163.84-167.936 0 0 2.048 2.048 4.096 6.144 2.048 2.048 2.048 2.048 4.096 2.048s2.048 0 4.096-2.048c-18.432 12.288-79.872 77.824-94.208 167.936-6.144 38.912 24.576 77.824 61.44 86.016 57.344 10.24 114.688 22.528 172.032 32.768 36.864 6.144 61.44 26.624 75.776 57.344 4.096 8.192 8.192 22.528 10.24 45.056 0 4.096 4.096 6.144 6.144 6.144 2.048 0 4.096-2.048 6.144-2.048h2.048c22.528-32.768 67.584-102.4 73.728-176.128 8.192-86.016 4.096-143.36-63.488-202.752 0 0-2.048-2.048-2.048-4.096s0-4.096 2.048-4.096H651.264l2.048 2.048c67.584 36.864 120.832 96.256 143.36 169.984 10.24-14.336 24.576-24.576 43.008-28.672-28.672-124.928-143.36-204.8-286.72-215.04-8.192 20.48-28.672 34.816-55.296 34.816-32.768 0-59.392-24.576-59.392-55.296s26.624-55.296 59.392-55.296c26.624 0 47.104 16.384 55.296 38.912 165.888 12.288 299.008 108.544 325.632 256 24.576 10.24 40.96 32.768 40.96 59.392v129.024c2.048 34.816-28.672 65.536-65.536 65.536z m-61.44-38.912c-43.008 112.64-155.648 194.56-286.72 194.56s-241.664-79.872-286.72-192.512c-2.048 2.048-4.096 4.096-8.192 6.144 24.576 137.216 147.456 241.664 292.864 241.664s268.288-102.4 292.864-239.616c0-2.048-2.048-6.144-4.096-10.24zM385.024 91.136c-2.048 0-2.048 0 0 0z"  horiz-adv-x="1024" />

    
    <glyph glyph-name="personal_icon_tuiguang" unicode="&#58906;" d="M815.104 752.64H208.896C184.32 752.64 163.84 732.16 163.84 707.584v-606.208C163.84 76.8 184.32 56.32 208.896 56.32h606.208c24.576 0 45.056 20.48 45.056 45.056V707.584C860.16 732.16 839.68 752.64 815.104 752.64zM512 187.392c-77.824 0-145.408 40.96-184.32 102.4v2.048s30.72 45.056 145.408 51.2v-40.96s0-10.24 8.192-12.288c0 0 8.192-4.096 14.336 2.048l122.88 98.304s6.144 4.096 4.096 12.288c0 0 0 6.144-4.096 10.24l-122.88 98.304s-8.192 6.144-16.384 2.048c0 0-8.192-4.096-8.192-12.288v-43.008s-133.12-6.144-167.936-120.832c-8.192 22.528-12.288 45.056-12.288 69.632 0 118.784 96.256 217.088 215.04 217.088s217.088-98.304 219.136-217.088c4.096-120.832-94.208-219.136-212.992-219.136z"  horiz-adv-x="1024" />

    
    <glyph glyph-name="personal_icon_toutiao" unicode="&#58907;" d="M884.736 599.04c-10.24 0-16.384-6.144-16.384-16.384v-518.144c0-20.48-14.336-34.816-34.816-34.816h-24.576c6.144 10.24 10.24 22.528 10.24 34.816V662.528C819.2 701.44 788.48 732.16 749.568 732.16H233.472C194.56 732.16 163.84 701.44 163.84 662.528v-598.016c0-40.96 30.72-69.632 69.632-69.632h600.064c38.912 0 69.632 30.72 69.632 69.632V580.608c-2.048 10.24-8.192 18.432-18.432 18.432z m-636.928 16.384c0 10.24 6.144 16.384 16.384 16.384h200.704c10.24 0 16.384-6.144 16.384-16.384v-116.736c0-10.24-6.144-16.384-16.384-16.384h-200.704c-10.24 0-16.384 6.144-16.384 16.384v116.736zM716.8 128H264.192c-8.192 0-16.384 6.144-16.384 16.384s8.192 16.384 16.384 16.384H716.8c8.192 0 16.384-6.144 16.384-16.384 0-8.192-6.144-16.384-16.384-16.384z m0 118.784H264.192c-8.192 0-16.384 6.144-16.384 16.384s8.192 16.384 16.384 16.384H716.8c8.192 0 16.384-6.144 16.384-16.384s-6.144-16.384-16.384-16.384z m0 116.736H264.192c-8.192 0-16.384 6.144-16.384 16.384s8.192 16.384 16.384 16.384H716.8c8.192 0 16.384-6.144 16.384-16.384s-6.144-16.384-16.384-16.384z m0 167.936h-184.32c-8.192 0-16.384 6.144-16.384 16.384s8.192 16.384 16.384 16.384h184.32c8.192 0 16.384-6.144 16.384-16.384s-6.144-16.384-16.384-16.384z"  horiz-adv-x="1024" />

    
    <glyph glyph-name="personal_icon_shuju" unicode="&#58908;" d="M354.304 543.744c0 16.384-8.192 22.528-20.48 22.528h-71.68c-12.288 0-24.576-8.192-24.576-22.528v-380.928h116.736V543.744z m483.328-423.936H208.896V750.592c0 12.288-10.24 22.528-22.528 22.528C174.08 773.12 163.84 762.88 163.84 750.592V76.8h673.792c12.288 0 22.528 8.192 22.528 22.528 0 12.288-10.24 20.48-22.528 20.48z m-26.624 423.936c0 16.384-4.096 22.528-18.432 22.528h-71.68c-12.288 0-28.672-8.192-28.672-22.528v-380.928h116.736V543.744h2.048zM516.096 709.632c0 16.384-16.384 30.72-28.672 30.72h-71.68c-12.288 0-30.72-14.336-30.72-30.72v-546.816h133.12V709.632h-2.048z m147.456-307.2c0 16.384-10.24 34.816-22.528 34.816h-71.68c-12.288 0-22.528-18.432-22.528-34.816v-239.616h116.736V402.432z"  horiz-adv-x="1024" />

    
    <glyph glyph-name="personal_icon_wdmp" unicode="&#58909;" d="M841.728 691.2H182.272c-20.48 0-38.912-16.384-38.912-36.864v-497.664c0-20.48 16.384-36.864 38.912-36.864h661.504c20.48 0 38.912 16.384 38.912 36.864V654.336c-2.048 20.48-18.432 36.864-40.96 36.864z m-235.52-180.224h122.88c10.24 0 18.432-12.288 18.432-22.528s-8.192-22.528-18.432-22.528h-122.88c-10.24 0-18.432 12.288-18.432 22.528s8.192 22.528 18.432 22.528z m0-98.304h122.88c10.24 0 18.432-12.288 18.432-22.528s-8.192-22.528-18.432-22.528h-122.88c-10.24 0-18.432 12.288-18.432 22.528 0 10.24 8.192 22.528 18.432 22.528z m-118.784-167.936H202.752c-10.24 2.048-16.384 10.24-14.336 20.48 12.288 59.392 55.296 104.448 112.64 118.784-28.672 14.336-49.152 45.056-49.152 79.872 0 51.2 40.96 90.112 92.16 90.112s92.16-40.96 92.16-90.112c0-34.816-20.48-65.536-49.152-79.872 57.344-16.384 100.352-61.44 112.64-120.832 4.096-8.192-2.048-16.384-12.288-18.432z m301.056 26.624h-182.272c-10.24 0-18.432 12.288-18.432 22.528s8.192 22.528 18.432 22.528h182.272c10.24 0 18.432-12.288 18.432-22.528s-8.192-22.528-18.432-22.528z"  horiz-adv-x="1024" />

    
    <glyph glyph-name="personal_icon_xiugaiziliao" unicode="&#58910;" d="M507.904 25.6c-202.752 0-368.64 165.888-368.64 368.64s165.888 368.64 368.64 368.64 368.64-165.888 368.64-368.64c0-204.8-163.84-368.64-368.64-368.64z m-192.512 272.384c-4.096-4.096-8.192-12.288-8.192-18.432v-53.248c0-14.336 12.288-26.624 26.624-26.624h53.248c8.192 0 14.336 2.048 18.432 8.192l243.712 243.712-90.112 90.112-243.712-243.712z m405.504 262.144l-53.248 53.248c-4.096 4.096-12.288 8.192-18.432 8.192-8.192 0-14.336-2.048-18.432-8.192l-34.816-34.816 90.112-90.112 34.816 34.816c4.096 4.096 8.192 12.288 8.192 18.432 0 8.192-4.096 14.336-8.192 18.432z"  horiz-adv-x="1024" />

    
    <glyph glyph-name="personal_icon_yundian" unicode="&#58911;" d="M878.592 482.304c2.048-20.48 0-38.912-8.192-55.296-8.192-18.432-22.528-32.768-43.008-43.008v-278.528c0-16.384-2.048-30.72-8.192-45.056-6.144-12.288-12.288-24.576-22.528-34.816s-20.48-16.384-32.768-22.528c-12.288-6.144-26.624-8.192-38.912-8.192H260.096c-14.336 0-28.672 2.048-40.96 8.192-12.288 6.144-24.576 12.288-32.768 22.528-10.24 10.24-16.384 20.48-22.528 34.816-6.144 12.288-8.192 28.672-8.192 45.056V381.952c-18.432 12.288-32.768 26.624-43.008 45.056-10.24 18.432-12.288 36.864-8.192 55.296l40.96 202.752c2.048 12.288 8.192 24.576 18.432 32.768 10.24 10.24 22.528 14.336 36.864 14.336H782.336c16.384 0 30.72-4.096 40.96-14.336s18.432-20.48 20.48-34.816l34.816-200.704z m-104.448-124.928c-8.192-2.048-16.384-2.048-24.576-2.048-18.432 0-34.816 4.096-49.152 10.24-16.384 6.144-28.672 14.336-40.96 26.624-12.288 10.24-20.48 24.576-28.672 38.912-6.144 14.336-10.24 30.72-10.24 49.152 0-16.384-4.096-32.768-10.24-49.152-6.144-14.336-16.384-28.672-26.624-38.912-12.288-10.24-24.576-20.48-40.96-26.624s-32.768-10.24-49.152-10.24-34.816 4.096-49.152 10.24c-16.384 6.144-28.672 16.384-40.96 26.624-12.288 12.288-20.48 24.576-26.624 40.96s-10.24 30.72-10.24 49.152c0-16.384-4.096-32.768-10.24-49.152s-16.384-28.672-28.672-40.96-26.624-20.48-43.008-26.624-32.768-10.24-51.2-10.24c-8.192 0-16.384 0-24.576 2.048V158.72c0-6.144 2.048-14.336 4.096-20.48 2.048-6.144 6.144-12.288 12.288-18.432 4.096-4.096 10.24-8.192 16.384-12.288 6.144-4.096 12.288-4.096 18.432-4.096h464.896c6.144 0 12.288 2.048 16.384 4.096 6.144 2.048 12.288 6.144 16.384 10.24s8.192 10.24 12.288 16.384c2.048 6.144 4.096 12.288 4.096 20.48v202.752z"  horiz-adv-x="1024" />

    
    <glyph glyph-name="personal_icon_bgmusic" unicode="&#58912;" d="M512 732.16c12.288 0 24.576 0 36.864-2.048 8.192-2.048 36.864 14.336 59.392 32.768 18.432 14.336 28.672 30.72 32.768 30.72 12.288-2.048-2.048-81.92 26.624-96.256C794.624 637.952 880.64 510.976 880.64 363.52c0-202.752-165.888-368.64-368.64-368.64S143.36 160.768 143.36 363.52 309.248 732.16 512 732.16z m116.736 26.624c-26.624-28.672-49.152-43.008-83.968-53.248-51.2-14.336-165.888-16.384-159.744-92.16 4.096-40.96 155.648-225.28 200.704-286.72-67.584 2.048-133.12 0-184.32-47.104-59.392-55.296-79.872-157.696-2.048-210.944 112.64-77.824 305.152 43.008 274.432 169.984-8.192 32.768-30.72 55.296-47.104 83.968-40.96 65.536-81.92 131.072-120.832 196.608-12.288 22.528-14.336 32.768-16.384 57.344 104.448 26.624 172.032 53.248 139.264 182.272z"  horiz-adv-x="1024" />

    
    <glyph glyph-name="personal_icon_gdh" unicode="&#58913;" d="M622.592 289.792v63.488h-71.68v-63.488h71.68zM819.2 465.92v104.448h-167.936v-24.576h94.208v-86.016c0-16.384-12.288-28.672-28.672-28.672h-102.4v245.76h204.8V701.44H538.624v-294.912h221.184c32.768 0 59.392 26.624 59.392 59.392zM360.448 125.952h71.68c16.384 0 30.72 14.336 30.72 30.72v155.648h-102.4v43.008h-75.776v-43.008H184.32v-186.368h100.352v-77.824h190.464v24.576h-114.688v53.248z m0 159.744H389.12v-55.296h-26.624v55.296z m0-79.872H389.12V158.72c0-6.144-4.096-10.24-10.24-10.24h-18.432v57.344z m-75.776-55.296h-26.624v55.296h26.624v-55.296z m0 79.872h-26.624v55.296h26.624v-55.296z m337.92 45.056H532.48v-24.576h16.384v-202.752H634.88v24.576h-12.288v202.752zM839.68 246.784v24.576h-63.488V322.56h57.344v24.576h-184.32V322.56h57.344v-51.2h-63.488v-24.576h63.488v-59.392h-59.392v-141.312h161.792c16.384 0 30.72 14.336 30.72 30.72v110.592h-61.44v59.392h61.44z m-69.632-165.888c0-6.144-4.096-8.192-8.192-8.192h-49.152v92.16h59.392v-83.968zM436.224 701.44h-81.92v-221.184h-75.776l32.768 221.184h-81.92l-36.864-245.76h161.792v-79.872h81.92v79.872H491.52v26.624h-55.296V701.44z"  horiz-adv-x="1024" />

    
    <glyph glyph-name="personal_icon_qianbao" unicode="&#58914;" d="M423.936 556.032h167.936c51.2 0 92.16 110.592 92.16 110.592 0 32.768-4.096 59.392-61.44 59.392-57.344 2.048-71.68-38.912-112.64-38.912-43.008 0-63.488 32.768-116.736 38.912-51.2 6.144-61.44-26.624-61.44-59.392 0 0 38.912-110.592 92.16-110.592z m176.128-34.816h-176.128c-196.608 0-243.712-380.928-243.712-380.928 0-49.152 40.96-100.352 92.16-100.352h481.28c51.2 0 92.16 51.2 92.16 100.352-2.048 0-49.152 380.928-245.76 380.928z m20.48-292.864c12.288 0 20.48-10.24 20.48-20.48 0-12.288-10.24-20.48-20.48-20.48h-86.016v-55.296c0-12.288-10.24-20.48-20.48-20.48-12.288 0-20.48 10.24-20.48 20.48v55.296h-88.064c-12.288 0-20.48 10.24-20.48 20.48 0 12.288 10.24 20.48 20.48 20.48H491.52v26.624h-88.064c-12.288 0-20.48 10.24-20.48 20.48 0 12.288 10.24 20.48 20.48 20.48h59.392l-61.44 108.544c-6.144 10.24-2.048 22.528 8.192 28.672 10.24 6.144 22.528 2.048 28.672-8.192l73.728-126.976h4.096l73.728 126.976c6.144 10.24 18.432 14.336 28.672 8.192 10.24-6.144 14.336-18.432 8.192-28.672l-59.392-106.496h55.296c12.288 0 20.48-10.24 20.48-20.48 0-12.288-10.24-20.48-20.48-20.48h-86.016v-26.624h83.968z"  horiz-adv-x="1024" />

    
    <glyph glyph-name="personal_icon_yaoqing" unicode="&#58915;" d="M856.064 476.16c-16.384 8.192-34.816 8.192-49.152-2.048l-249.856-163.84c-26.624-16.384-59.392-16.384-86.016 0l-249.856 163.84c-16.384 10.24-34.816 12.288-51.2 2.048-16.384-8.192-24.576-24.576-24.576-43.008v-307.2c0-40.96 32.768-73.728 73.728-73.728h587.776c40.96 0 73.728 32.768 73.728 73.728v307.2c0 18.432-10.24 34.816-24.576 43.008z m-577.536-6.144l190.464-122.88c26.624-16.384 61.44-16.384 88.064 0l190.464 122.88c18.432 12.288 28.672 32.768 28.672 53.248v122.88c0 38.912-30.72 69.632-67.584 69.632h-389.12c-36.864 0-67.584-30.72-67.584-69.632v-122.88c-2.048-22.528 10.24-43.008 26.624-53.248z m210.944 114.688c12.288 0 22.528-4.096 30.72-12.288 16.384 16.384 43.008 16.384 59.392 0 8.192-8.192 12.288-18.432 12.288-30.72 0-14.336-6.144-26.624-16.384-34.816l-47.104-40.96c-6.144-4.096-14.336-4.096-18.432 0l-47.104 40.96c-10.24 8.192-14.336 20.48-14.336 32.768a40.96 40.96 0 0 0 40.96 45.056z"  horiz-adv-x="1024" />

    
    <glyph glyph-name="home_btn_mipian" unicode="&#58916;" d="M862.208 734.208H161.792c-65.536 0-116.736-53.248-116.736-116.736v-466.944c0-65.536 53.248-116.736 116.736-116.736h700.416c65.536 0 116.736 53.248 116.736 116.736V617.472c0 65.536-51.2 116.736-116.736 116.736zM512 207.872H143.36v26.624c2.048 20.48 10.24 34.816 22.528 45.056 10.24 6.144 20.48 10.24 30.72 12.288 4.096 0 10.24 2.048 14.336 4.096 24.576 6.144 51.2 12.288 69.632 36.864 2.048 2.048 12.288 16.384-14.336 49.152-12.288 14.336-18.432 32.768-22.528 57.344-4.096 24.576 0 47.104 2.048 61.44 4.096 16.384 14.336 32.768 28.672 45.056 14.336 12.288 32.768 16.384 51.2 16.384 18.432 0 36.864-6.144 51.2-16.384 14.336-12.288 24.576-26.624 28.672-45.056 2.048-14.336 4.096-36.864 2.048-61.44-4.096-22.528-10.24-40.96-22.528-57.344-26.624-32.768-16.384-47.104-14.336-49.152 18.432-24.576 45.056-30.72 69.632-36.864 4.096 0 10.24-2.048 14.336-4.096 10.24-2.048 20.48-6.144 30.72-12.288 28.672-20.48 26.624-61.44 26.624-71.68z m276.48 71.68c0-14.336-12.288-26.624-26.624-26.624H614.4c-14.336 0-26.624 12.288-26.624 26.624V281.6c0 14.336 12.288 26.624 26.624 26.624h147.456c14.336 0 26.624-12.288 26.624-28.672z m100.352 149.504c0-14.336-12.288-26.624-26.624-26.624H614.4c-14.336 0-26.624 12.288-26.624 26.624v2.048c0 14.336 12.288 26.624 26.624 26.624h247.808c14.336 0 26.624-12.288 26.624-28.672z"  horiz-adv-x="1024" />

    
    <glyph glyph-name="home_btn_baowen" unicode="&#58917;" d="M659.456 472.064l12.288-20.48c4.096-8.192 12.288-10.24 20.48-6.144 4.096 2.048 6.144 6.144 8.192 10.24l8.192 24.576c14.336 34.816 32.768 67.584 55.296 94.208 0 0 0 2.048 2.048 2.048 12.288 14.336 26.624 28.672 40.96 38.912 12.288 10.24 20.48 26.624 16.384 43.008 8.192-10.24 12.288-22.528 12.288-36.864 0-10.24-2.048-18.432-6.144-28.672-14.336-43.008-22.528-90.112-22.528-139.264 0-26.624 8.192-73.728 26.624-106.496 24.576-34.816 38.912-73.728 38.912-114.688 0-139.264-159.744-249.856-356.352-249.856C335.872-17.408 186.368 76.8 163.84 199.68v-2.048c-6.144 28.672-8.192 57.344-8.192 86.016 0 153.6 77.824 284.672 184.32 327.68-32.768-55.296-51.2-122.88-53.248-196.608 2.048-28.672 24.576-49.152 53.248-49.152h4.096c49.152 0 73.728 34.816 73.728 104.448v18.432c0 139.264 92.16 258.048 219.136 294.912-20.48-40.96-30.72-88.064-30.72-133.12-2.048-63.488 16.384-126.976 53.248-178.176z"  horiz-adv-x="1024" />

    
    <glyph glyph-name="home_btn_renami" unicode="&#58918;" d="M352.256 300.032c8.192 4.096 18.432 6.144 30.72 14.336 16.384 10.24 30.72 34.816-2.048 61.44-106.496 157.696-67.584 262.144-51.2 301.056-14.336 6.144-28.672 8.192-47.104 8.192h-6.144c-102.4 0-129.024-94.208-131.072-147.456-2.048-124.928 73.728-176.128 73.728-176.128s4.096-6.144 4.096-26.624c0-4.096-2.048-18.432-8.192-20.48-40.96-34.816-182.272-71.68-192.512-145.408-6.144-22.528-2.048-45.056-2.048-65.536 22.528-18.432 96.256-32.768 96.256-32.768s6.144 18.432 12.288 51.2c10.24 45.056 71.68 118.784 223.232 178.176z m647.168-131.072c-10.24 73.728-153.6 110.592-196.608 145.408-4.096 4.096-8.192 16.384-8.192 20.48 0 18.432 4.096 26.624 4.096 26.624s77.824 49.152 75.776 176.128c-2.048 53.248-34.816 147.456-135.168 147.456h-6.144c-22.528 0-38.912-4.096-55.296-10.24 20.48-73.728 47.104-206.848-61.44-296.96-43.008-65.536 98.304-102.4 77.824-92.16 129.024-59.392 161.792-104.448 172.032-151.552 8.192-38.912 12.288-63.488 12.288-63.488s96.256 14.336 120.832 34.816c4.096 20.48 6.144 40.96 0 63.488z m-417.792 143.36c-6.144 4.096-10.24 20.48-10.24 26.624 0 24.576 6.144 32.768 6.144 32.768S671.744 424.96 669.696 588.8c-2.048 65.536-43.008 184.32-165.888 184.32h-6.144c-129.024 0-161.792-118.784-165.888-184.32-2.048-155.648 92.16-217.088 92.16-217.088s12.288-14.336 12.288-36.864c0-6.144-8.192-16.384-14.336-20.48-53.248-43.008-243.712-86.016-256-180.224-10.24-38.912-65.536-102.4 120.832-126.976 51.2-6.144 122.88-10.24 217.088-10.24 438.272-2.048 348.16 83.968 335.872 135.168-12.288 92.16-204.8 137.216-258.048 180.224z"  horiz-adv-x="1024" />

    
    <glyph glyph-name="home_icon_bodadianhua" unicode="&#58919;" d="M471.04 343.04c-53.248 53.248-102.4 114.688-79.872 137.216 34.816 34.816 65.536 55.296 4.096 131.072s-102.4 18.432-135.168-16.384c-38.912-38.912-2.048-182.272 139.264-325.632 141.312-141.312 286.72-178.176 325.632-139.264 32.768 32.768 92.16 73.728 16.384 135.168-75.776 61.44-98.304 30.72-131.072-4.096-24.576-20.48-86.016 28.672-139.264 81.92z"  horiz-adv-x="1024" />

    
    <glyph glyph-name="home_icon_dktoutiao" unicode="&#58920;" d="M751.616 640H274.432c-38.912 0-69.632-30.72-69.632-67.584v-374.784c0-38.912 30.72-69.632 69.632-69.632h477.184c38.912 0 67.584 30.72 67.584 67.584V570.368c0 38.912-30.72 69.632-67.584 69.632z m28.672-444.416c0-16.384-12.288-28.672-28.672-28.672H274.432c-16.384 0-28.672 12.288-28.672 28.672V570.368c0 16.384 12.288 28.672 28.672 28.672h477.184c16.384 0 28.672-12.288 28.672-28.672v-374.784zM296.96 545.792h430.08v-40.96h-430.08v40.96z m235.52-81.92h194.56v-40.96H532.48v40.96z m0-81.92h194.56v-57.344H532.48v57.344z m0-114.688h159.744v-40.96H532.48v40.96z m-235.52 194.56h186.368v-235.52h-186.368V461.824z"  horiz-adv-x="1024" />

    
    <glyph glyph-name="home_icon_fengcai" unicode="&#58921;" d="M770.048 670.72H274.432c-32.768 0-59.392-28.672-59.392-61.44v-409.6c0-34.816 26.624-61.44 59.392-61.44h495.616c32.768 0 59.392 26.624 59.392 61.44V609.28c0 32.768-26.624 61.44-59.392 61.44z m18.432-471.04c0-10.24-8.192-20.48-18.432-20.48H290.816l139.264 161.792 55.296-57.344c8.192-8.192 18.432-12.288 28.672-12.288s20.48 8.192 28.672 16.384l108.544 155.648 135.168-155.648h2.048V199.68z m0 153.6l-108.544 124.928c-8.192 8.192-18.432 14.336-30.72 12.288-12.288 0-22.528-6.144-28.672-16.384L512 316.416l-55.296 55.296c-8.192 8.192-18.432 12.288-28.672 12.288s-20.48-4.096-26.624-14.336l-145.408-167.936V609.28c0 12.288 8.192 20.48 18.432 20.48h497.664c10.24 0 18.432-8.192 18.432-20.48l-2.048-256zM401.408 596.992c-51.2 0-90.112-43.008-90.112-94.208 0-53.248 40.96-94.208 90.112-94.208 51.2 0 90.112 43.008 90.112 94.208s-40.96 94.208-90.112 94.208z m0-149.504c-28.672 0-51.2 24.576-51.2 53.248s22.528 53.248 51.2 53.248 51.2-24.576 51.2-53.248c0-28.672-22.528-53.248-51.2-53.248z"  horiz-adv-x="1024" />

    
    <glyph glyph-name="home_icon_huichuan" unicode="&#58922;" d="M641.024 336.896l178.176 182.272-178.176 182.272v-124.928H245.76v-112.64h395.264v-126.976z m-258.048 94.208L204.8 248.832l178.176-182.272v124.928h403.456v112.64H382.976v126.976z"  horiz-adv-x="1024" />

    
    <glyph glyph-name="home_icon_honor" unicode="&#58923;" d="M512 384m-430.08 0a430.08 430.08 0 1 1 860.16 0 430.08 430.08 0 1 1-860.16 0ZM755.712 207.872l-65.536 106.496c28.672 34.816 47.104 79.872 47.104 126.976 0 57.344-24.576 110.592-65.536 147.456-40.96 38.912-96.256 61.44-157.696 61.44s-118.784-22.528-157.696-61.44c-40.96-36.864-65.536-90.112-65.536-147.456 0-47.104 16.384-92.16 47.104-126.976l-65.536-106.496c-6.144-4.096-6.144-8.192-6.144-10.24 2.048-6.144 10.24-10.24 16.384-8.192l90.112 22.528 24.576-83.968c0-2.048 2.048-6.144 6.144-8.192 6.144-4.096 14.336-2.048 18.432 4.096l67.584 108.544c8.192-2.048 16.384-2.048 24.576-2.048 8.192 0 16.384 0 24.576 2.048l67.584-108.544c4.096-6.144 12.288-8.192 18.432-4.096 2.048 2.048 6.144 4.096 6.144 8.192l24.576 83.968 88.064-22.528c6.144-2.048 14.336 2.048 16.384 8.192-2.048 2.048-2.048 6.144-4.096 10.24z m-342.016-45.056l-18.432 65.536c-2.048 6.144-10.24 10.24-16.384 8.192L307.2 220.16l45.056 73.728c28.672-26.624 65.536-47.104 106.496-55.296l-45.056-75.776zM512 381.952l-67.584-32.768 12.288 71.68-55.296 51.2 75.776 10.24 34.816 63.488 34.816-63.488 75.776-10.24-55.296-51.2 12.288-71.68-67.584 32.768z m135.168-145.408c-8.192 2.048-14.336-2.048-16.384-8.192l-18.432-65.536-47.104 75.776c40.96 10.24 77.824 28.672 106.496 55.296L716.8 220.16l-69.632 16.384z"  horiz-adv-x="1024" />

    
    <glyph glyph-name="home_icon_phone" unicode="&#58924;" d="M512 396.288m-389.12 0a389.12 389.12 0 1 1 778.24 0 389.12 389.12 0 1 1-778.24 0ZM696.32 252.928c-8.192-28.672-59.392-51.2-114.688-36.864-57.344 14.336-112.64 43.008-157.696 90.112-45.056 45.056-75.776 102.4-88.064 157.696-14.336 55.296 8.192 108.544 36.864 116.736 8.192 2.048 36.864 6.144 79.872-73.728 12.288-22.528 2.048-22.528-24.576-67.584-12.288-20.48 8.192-51.2 8.192-51.2s14.336-22.528 30.72-38.912c16.384-16.384 38.912-30.72 38.912-30.72s28.672-22.528 51.2-8.192c45.056 28.672 45.056 38.912 67.584 24.576 75.776-45.056 73.728-73.728 71.68-81.92z"  horiz-adv-x="1024" />

    
    <glyph glyph-name="home_icon_phone1" unicode="&#58925;" d="M491.52 842.752c-249.856 0-450.56-200.704-450.56-450.56s200.704-450.56 450.56-450.56h450.56v450.56c0 249.856-200.704 450.56-450.56 450.56z m151.552-710.656C489.472 132.096 245.76 390.144 245.76 525.312c0 47.104 67.584 96.256 94.208 96.256 28.672 0 94.208-112.64 94.208-131.072 0-26.624-22.528-36.864-22.528-63.488 0-24.576 100.352-124.928 122.88-124.928s40.96 22.528 67.584 22.528c24.576 0 133.12-79.872 133.12-96.256 2.048-51.2-51.2-96.256-92.16-96.256zM694.272 236.544c-10.24 8.192-22.528 18.432-34.816 26.624-30.72 22.528-51.2 32.768-57.344 34.816-6.144 0-14.336-4.096-22.528-8.192-12.288-6.144-26.624-14.336-45.056-14.336-12.288 0-26.624 6.144-45.056 22.528-12.288 10.24-28.672 24.576-43.008 38.912-61.44 61.44-61.44 86.016-61.44 92.16 0 20.48 8.192 34.816 14.336 45.056 4.096 6.144 6.144 10.24 6.144 14.336-2.048 8.192-12.288 28.672-30.72 55.296-8.192 12.288-16.384 24.576-24.576 34.816-6.144 8.192-12.288 12.288-14.336 14.336-2.048 0-6.144-2.048-12.288-6.144-8.192-4.096-16.384-12.288-24.576-18.432-8.192-8.192-16.384-16.384-20.48-24.576s-6.144-14.336-6.144-18.432c0-12.288 4.096-28.672 8.192-47.104 6.144-18.432 16.384-36.864 26.624-57.344 24.576-40.96 57.344-83.968 96.256-122.88 38.912-40.96 81.92-75.776 122.88-98.304 43.008-24.576 81.92-38.912 112.64-38.912 12.288 0 30.72 8.192 43.008 20.48s20.48 26.624 22.528 40.96c2.048 2.048-2.048 6.144-10.24 14.336z"  horiz-adv-x="1024" />

    
    <glyph glyph-name="home_icon_address" unicode="&#58926;" d="M512 384m-389.12 0a389.12 389.12 0 1 1 778.24 0 389.12 389.12 0 1 1-778.24 0ZM522.24 179.2c-4.096 0-8.192 0-8.192 2.048s-102.4 118.784-129.024 176.128c-10.24 20.48-14.336 43.008-14.336 63.488 0 81.92 69.632 147.456 153.6 147.456s153.6-67.584 153.6-147.456c0-24.576-4.096-43.008-16.384-63.488-32.768-57.344-126.976-172.032-126.976-174.08-4.096-2.048-6.144-4.096-12.288-4.096z m0 299.008c-32.768 0-59.392-26.624-59.392-57.344 0-30.72 26.624-57.344 59.392-57.344 32.768 0 59.392 26.624 59.392 57.344 0 30.72-26.624 57.344-59.392 57.344z"  horiz-adv-x="1024" />

    
    <glyph glyph-name="home_icon_huizhang" unicode="&#58927;" d="M776.192 508.928l-10.24 14.336c-4.096 6.144-10.24 22.528-10.24 28.672l-2.048 16.384c-2.048 20.48-18.432 43.008-34.816 51.2l-16.384 6.144c-6.144 4.096-20.48 14.336-24.576 20.48l-8.192 14.336c-10.24 18.432-34.816 28.672-55.296 28.672h-16.384c-8.192 0-24.576 4.096-30.72 6.144l-16.384 8.192c-18.432 10.24-45.056 10.24-61.44 0l-10.24-4.096c-6.144-4.096-22.528-8.192-30.72-6.144H430.08c-20.48 0-45.056-10.24-55.296-28.672l-10.24-14.336c-4.096-6.144-16.384-18.432-24.576-22.528l-12.288-6.144c-20.48-8.192-34.816-30.72-34.816-51.2l-2.048-16.384c0-8.192-6.144-22.528-10.24-28.672l-10.24-16.384c-10.24-16.384-16.384-43.008-6.144-63.488l6.144-16.384c2.048-6.144 4.096-22.528 4.096-30.72l-4.096-14.336c-2.048-20.48 6.144-45.056 22.528-57.344l14.336-10.24c6.144-4.096 16.384-18.432 18.432-26.624l4.096-16.384c0-2.048 2.048-6.144 4.096-8.192l-59.392-102.4h86.016l43.008-63.488 51.2 90.112c14.336-4.096 26.624-6.144 40.96-2.048l16.384 4.096c8.192 2.048 24.576 2.048 30.72 0l16.384-4.096c10.24-2.048 26.624-2.048 36.864 2.048l51.2-90.112 43.008 63.488h86.016l-59.392 102.4c2.048 2.048 4.096 6.144 4.096 10.24l4.096 16.384c2.048 8.192 10.24 20.48 18.432 26.624l14.336 10.24c16.384 14.336 24.576 38.912 22.528 57.344l-2.048 16.384c-2.048 8.192 0 24.576 4.096 30.72l6.144 16.384c4.096 16.384 0 43.008-12.288 59.392zM524.288 228.352C403.456 228.352 307.2 326.656 307.2 445.44s96.256 219.136 215.04 219.136c120.832 0 215.04-98.304 215.04-217.088s-96.256-219.136-212.992-219.136z m0 411.648c-106.496 0-194.56-88.064-194.56-194.56s86.016-194.56 194.56-194.56S716.8 338.944 716.8 445.44c0 108.544-86.016 194.56-192.512 194.56z m67.584-288.768l-67.584 34.816-67.584-32.768 14.336 73.728-53.248 53.248 75.776 10.24 34.816 67.584 32.768-67.584 73.728-10.24-53.248-53.248 10.24-75.776z m184.32 157.696l-10.24 14.336c-4.096 6.144-10.24 22.528-10.24 28.672l-2.048 16.384c-2.048 20.48-18.432 43.008-34.816 51.2l-16.384 6.144c-6.144 4.096-20.48 14.336-24.576 20.48l-8.192 14.336c-10.24 18.432-34.816 28.672-55.296 28.672h-16.384c-8.192 0-24.576 4.096-30.72 6.144l-16.384 8.192c-18.432 10.24-45.056 10.24-61.44 0l-10.24-4.096c-6.144-4.096-22.528-8.192-30.72-6.144H430.08c-20.48 0-45.056-10.24-55.296-28.672l-10.24-14.336c-4.096-6.144-16.384-18.432-24.576-22.528l-12.288-6.144c-20.48-8.192-34.816-30.72-34.816-51.2l-2.048-16.384c0-8.192-6.144-22.528-10.24-28.672l-10.24-16.384c-10.24-16.384-16.384-43.008-6.144-63.488l6.144-16.384c2.048-6.144 4.096-22.528 4.096-30.72l-4.096-14.336c-2.048-20.48 6.144-45.056 22.528-57.344l14.336-10.24c6.144-4.096 16.384-18.432 18.432-26.624l4.096-16.384c0-2.048 2.048-6.144 4.096-8.192l-59.392-102.4h86.016l43.008-63.488 51.2 90.112c14.336-4.096 26.624-6.144 40.96-2.048l16.384 4.096c8.192 2.048 24.576 2.048 30.72 0l16.384-4.096c10.24-2.048 26.624-2.048 36.864 2.048l51.2-90.112 43.008 63.488h86.016l-59.392 102.4c2.048 2.048 4.096 6.144 4.096 10.24l4.096 16.384c2.048 8.192 10.24 20.48 18.432 26.624l14.336 10.24c16.384 14.336 24.576 38.912 22.528 57.344l-2.048 16.384c-2.048 8.192 0 24.576 4.096 30.72l6.144 16.384c4.096 16.384 0 43.008-12.288 59.392zM524.288 228.352C403.456 228.352 307.2 326.656 307.2 445.44s96.256 219.136 215.04 219.136c120.832 0 215.04-98.304 215.04-217.088s-96.256-219.136-212.992-219.136z m0 411.648c-106.496 0-194.56-88.064-194.56-194.56s86.016-194.56 194.56-194.56S716.8 338.944 716.8 445.44c0 108.544-86.016 194.56-192.512 194.56z m67.584-288.768l-67.584 34.816-67.584-32.768 14.336 73.728-53.248 53.248 75.776 10.24 34.816 67.584 32.768-67.584 73.728-10.24-53.248-53.248 10.24-75.776z"  horiz-adv-x="1024" />

    
    <glyph glyph-name="home_icon_shjpin" unicode="&#58928;" d="M487.424 529.408c-16.384 8.192-36.864-4.096-36.864-22.528v-182.272c0-18.432 20.48-30.72 36.864-20.48l157.696 90.112c16.384 10.24 16.384 32.768 0 43.008l-157.696 92.16z m350.208-71.68C821.248 603.136 702.464 719.872 557.056 732.16c-190.464 14.336-346.112-143.36-331.776-333.824 12.288-147.456 129.024-264.192 274.432-280.576 83.968-8.192 161.792 16.384 221.184 65.536 8.192 8.192 10.24 20.48 2.048 28.672-6.144 6.144-18.432 8.192-24.576 2.048-51.2-40.96-116.736-63.488-186.368-59.392-129.024 8.192-237.568 112.64-249.856 241.664C245.76 568.32 389.12 711.68 561.152 693.248c124.928-12.288 227.328-112.64 239.616-237.568 6.144-67.584-10.24-129.024-45.056-180.224-4.096-8.192-4.096-16.384 2.048-24.576 8.192-8.192 22.528-6.144 28.672 2.048 38.912 59.392 59.392 129.024 51.2 204.8z"  horiz-adv-x="1024" />

    
    <glyph glyph-name="home_icon_address1" unicode="&#58929;" d="M512 834.56C262.144 834.56 61.44 633.856 61.44 384s200.704-450.56 450.56-450.56h450.56V384c0 249.856-200.704 450.56-450.56 450.56z m143.36-589.824l-16.384-14.336-112.64-112.64c-6.144-6.144-16.384-10.24-24.576-10.24-8.192 0-18.432 4.096-24.576 10.24l-79.872 77.824-49.152 49.152c-92.16 92.16-98.304 243.712-2.048 333.824 43.008 40.96 100.352 61.44 155.648 61.44s112.64-20.48 155.648-61.44c96.256-88.064 90.112-241.664-2.048-333.824zM434.176 418.816a67.584 67.584 0 1 1 135.168 0 67.584 67.584 0 1 1-135.168 0ZM634.88 553.984c-36.864 32.768-83.968 51.2-133.12 51.2s-96.256-16.384-133.12-51.2-57.344-81.92-59.392-133.12c0-57.344 22.528-112.64 61.44-151.552l49.152-49.152 79.872-77.824 114.688 112.64 16.384 14.336c40.96 40.96 63.488 96.256 61.44 151.552 0 51.2-20.48 100.352-57.344 133.12z m-133.12-235.52c-55.296 0-100.352 45.056-100.352 100.352s45.056 100.352 100.352 100.352 100.352-45.056 100.352-100.352-45.056-100.352-100.352-100.352z"  horiz-adv-x="1024" />

    
    <glyph glyph-name="home_icon_shqianmin" unicode="&#58930;" d="M720.896 625.664c57.344 34.816 116.736 79.872 122.88 116.736 6.144 34.816-75.776 14.336-174.08-49.152-98.304-65.536-225.28-165.888-348.16-350.208-122.88-182.272-184.32-346.112-104.448-299.008 0 0 2.048 4.096 6.144 10.24l223.232 30.72c-63.488 22.528-163.84-4.096-217.088-22.528 32.768 57.344 137.216 231.424 217.088 264.192 94.208 40.96 186.368 51.2 243.712 116.736 0 0 26.624 45.056-88.064 0 0 0-38.912 6.144 18.432 32.768 57.344 28.672 176.128 83.968 192.512 133.12 0 0 24.576 30.72-53.248 0-81.92-30.72-96.256-16.384-38.912 16.384zM684.032 117.76l-241.664-32.768 12.288-6.144c88.064-43.008 217.088 14.336 229.376 38.912z"  horiz-adv-x="1024" />

    
    <glyph glyph-name="home_icon_yundian" unicode="&#58931;" d="M741.376 683.008L737.28 691.2H274.432l-6.144-6.144c-116.736-153.6-102.4-247.808-81.92-288.768 20.48-43.008 61.44-69.632 104.448-69.632h4.096c55.296 2.048 90.112 30.72 110.592 49.152 16.384-20.48 49.152-47.104 100.352-47.104 53.248 0 86.016 28.672 102.4 49.152 22.528-18.432 67.584-51.2 114.688-51.2 30.72 0 57.344 12.288 79.872 38.912 81.92 96.256-55.296 309.248-61.44 317.44z m2.048-378.88c-10.24 0-18.432-8.192-18.432-18.432v-135.168c0-20.48-16.384-36.864-36.864-36.864H315.392c-20.48 0-36.864 16.384-36.864 36.864v135.168c0 10.24-8.192 18.432-18.432 18.432s-18.432-8.192-18.432-18.432v-137.216c0-38.912 30.72-71.68 69.632-71.68h380.928c38.912 0 69.632 32.768 69.632 71.68v137.216c0 10.24-8.192 18.432-18.432 18.432z"  horiz-adv-x="1024" />

    
    <glyph glyph-name="home_icon_rongyu" unicode="&#58932;" d="M714.752 615.424v38.912c0 20.48-16.384 38.912-38.912 38.912H368.64c-20.48 0-38.912-16.384-38.912-38.912v-38.912c-63.488 0-114.688-55.296-114.688-124.928s51.2-124.928 114.688-124.928h4.096c16.384-81.92 86.016-145.408 169.984-153.6v-96.256h-75.776c-10.24 0-18.432-8.192-18.432-18.432s8.192-18.432 18.432-18.432h192.512c10.24 0 18.432 8.192 18.432 18.432s-8.192 18.432-18.432 18.432h-75.776v96.256c83.968 8.192 151.552 69.632 169.984 153.6h4.096c63.488 0 114.688 55.296 114.688 124.928-4.096 67.584-55.296 124.928-118.784 124.928zM329.728 402.432c-43.008 0-77.824 38.912-77.824 86.016s34.816 86.016 77.824 86.016v-172.032z m346.112 6.144c0-88.064-69.632-157.696-153.6-157.696S368.64 322.56 368.64 408.576V615.424c0 20.48 16.384 38.912 38.912 38.912h231.424c20.48 0 38.912-16.384 38.912-38.912v-206.848H675.84z m38.912-6.144v172.032c43.008 0 75.776-38.912 75.776-86.016 0-47.104-34.816-86.016-75.776-86.016z"  horiz-adv-x="1024" />

    
    <glyph glyph-name="home_icon_weixin" unicode="&#58933;" d="M512 384m-389.12 0a389.12 389.12 0 1 1 778.24 0 389.12 389.12 0 1 1-778.24 0ZM737.28 330.752c0 63.488-61.44 114.688-137.216 114.688s-137.216-51.2-137.216-114.688c0-63.488 61.44-114.688 137.216-114.688 18.432 0 34.816 2.048 49.152 8.192l43.008-24.576-12.288 38.912c34.816 20.48 57.344 55.296 57.344 92.16z m-186.368 22.528c-10.24 0-18.432 8.192-18.432 18.432s8.192 18.432 18.432 18.432 18.432-8.192 18.432-18.432-8.192-18.432-18.432-18.432z m92.16 0c-10.24 0-18.432 8.192-18.432 18.432s8.192 18.432 18.432 18.432 18.432-8.192 18.432-18.432-8.192-18.432-18.432-18.432zM595.968 449.536h6.144c-8.192 67.584-75.776 118.784-157.696 118.784-88.064 0-157.696-59.392-157.696-133.12 0-43.008 24.576-81.92 63.488-106.496l-12.288-45.056 49.152 26.624c18.432-6.144 36.864-8.192 57.344-8.192h18.432c-4.096 10.24-6.144 20.48-6.144 30.72 2.048 65.536 63.488 116.736 139.264 116.736z m-94.208 53.248c12.288 0 20.48-10.24 20.48-20.48 0-12.288-10.24-20.48-20.48-20.48-12.288 0-20.48 10.24-20.48 20.48 0 12.288 8.192 20.48 20.48 20.48z m-106.496-40.96c-12.288 0-20.48 10.24-20.48 20.48 0 12.288 10.24 20.48 20.48 20.48 12.288 0 20.48-10.24 20.48-20.48 0-12.288-8.192-20.48-20.48-20.48z"  horiz-adv-x="1024" />

    
    <glyph glyph-name="home_icon_weixin1" unicode="&#58934;" d="M616.448 463.872c-16.384 73.728-98.304 131.072-188.416 131.072-102.4 0-188.416-71.68-188.416-159.744 0-49.152 24.576-92.16 75.776-126.976 4.096-2.048 4.096-6.144 4.096-10.24l-12.288-38.912 49.152 24.576c2.048 0 4.096 2.048 6.144 0l10.24-2.048c18.432-4.096 36.864-8.192 55.296-8.192h20.48c-4.096 12.288-4.096 22.528-4.096 34.816 0 86.016 75.776 153.6 172.032 155.648z m-253.952 8.192c-14.336 0-30.72 10.24-30.72 26.624s16.384 24.576 30.72 24.576 24.576-10.24 24.576-24.576c0-16.384-10.24-26.624-24.576-26.624z m110.592 24.576c0 16.384 14.336 24.576 30.72 24.576 14.336 0 24.576-10.24 24.576-24.576 0-16.384-10.24-26.624-24.576-26.624-14.336 2.048-30.72 12.288-30.72 26.624zM626.688 439.296c-86.016 0-155.648-59.392-155.648-133.12s69.632-133.12 155.648-133.12c18.432 0 36.864 4.096 55.296 10.24h2.048c2.048 0 2.048 0 4.096-2.048l34.816-18.432-8.192 28.672c-2.048 4.096 0 8.192 4.096 10.24 40.96 30.72 63.488 69.632 63.488 104.448 0 71.68-71.68 133.12-155.648 133.12z m-55.296-106.496c-10.24 0-20.48 10.24-20.48 20.48s10.24 20.48 20.48 20.48c14.336 0 24.576-10.24 24.576-20.48s-10.24-20.48-24.576-20.48z m110.592 0c-10.24 0-20.48 10.24-20.48 20.48s10.24 20.48 20.48 20.48c14.336 0 24.576-10.24 24.576-20.48 2.048-10.24-8.192-20.48-24.576-20.48zM491.52 834.56C241.664 834.56 40.96 633.856 40.96 384s200.704-450.56 450.56-450.56h450.56V384c0 249.856-200.704 450.56-450.56 450.56z m247.808-649.216l14.336-45.056c2.048-4.096 0-8.192-2.048-10.24s-4.096-2.048-6.144-2.048-2.048 0-4.096 2.048L686.08 158.72c-18.432-4.096-38.912-10.24-59.392-10.24-79.872 0-147.456 45.056-172.032 106.496-2.048-2.048-20.48-4.096-26.624-4.096-22.528 0-40.96 4.096-61.44 8.192l-8.192 2.048-67.584-34.816H286.72c-2.048 0-4.096 0-6.144 2.048s-4.096 6.144-2.048 10.24l18.432 55.296c-53.248 38.912-79.872 88.064-79.872 141.312 0 102.4 96.256 184.32 212.992 184.32 104.448 0 196.608-65.536 215.04-151.552v-4.096c92.16-8.192 165.888-75.776 165.888-157.696-2.048-40.96-26.624-86.016-71.68-120.832z"  horiz-adv-x="1024" />

    
    <glyph glyph-name="home_btn_my" unicode="&#58935;" d="M114.688-5.12c-2.048 8.192-2.048 32.768 0 57.344 6.144 45.056 24.576 77.824 51.2 98.304 20.48 14.336 45.056 22.528 67.584 26.624 10.24 2.048 22.528 6.144 30.72 8.192 55.296 12.288 110.592 24.576 151.552 79.872 4.096 4.096 24.576 36.864-32.768 106.496-24.576 30.72-40.96 73.728-49.152 124.928-8.192 55.296-2.048 104.448 4.096 137.216 8.192 38.912 28.672 73.728 61.44 98.304C432.128 760.832 471.04 773.12 512 773.12s79.872-12.288 112.64-38.912c32.768-24.576 55.296-59.392 61.44-100.352 6.144-32.768 10.24-83.968 4.096-137.216-8.192-51.2-24.576-92.16-49.152-124.928-57.344-71.68-34.816-104.448-32.768-106.496 40.96-57.344 98.304-69.632 151.552-79.872 10.24-2.048 22.528-6.144 32.768-8.192 20.48-6.144 45.056-12.288 65.536-26.624 59.392-40.96 55.296-133.12 53.248-153.6H114.688z"  horiz-adv-x="1024" />

    
    <glyph glyph-name="jiantou" unicode="&#58936;" d="M587.776 384l-204.8 198.656c-6.144 6.144-6.144 18.432 0 24.576l6.144 6.144c6.144 6.144 18.432 6.144 24.576 0l223.232-217.088c6.144-6.144 6.144-18.432 0-24.576L415.744 154.624c-6.144-6.144-18.432-6.144-24.576 0l-6.144 6.144c-6.144 6.144-6.144 18.432 0 24.576l202.752 198.656z"  horiz-adv-x="1024" />

    
    <glyph glyph-name="renmai_haoyou_icon_dianhua" unicode="&#58937;" d="M741.376 267.264c-75.776 61.44-98.304 30.72-131.072-4.096-24.576-22.528-86.016 26.624-139.264 79.872-53.248 53.248-102.4 114.688-79.872 137.216 34.816 34.816 65.536 55.296 4.096 131.072s-102.4 18.432-135.168-16.384c-38.912-38.912-2.048-182.272 139.264-325.632 141.312-141.312 286.72-178.176 325.632-139.264 32.768 34.816 92.16 75.776 16.384 137.216zM512 896C229.376 896 0 666.624 0 384s229.376-512 512-512 512 229.376 512 512S794.624 896 512 896z m0-999.424C243.712-103.424 24.576 115.712 24.576 384 24.576 652.288 243.712 871.424 512 871.424c268.288 0 487.424-219.136 487.424-487.424 0-268.288-219.136-487.424-487.424-487.424z"  horiz-adv-x="1024" />

    
    <glyph glyph-name="renmai_haoyou_icon_suliao" unicode="&#58938;" d="M512 896C229.376 896 0 666.624 0 384s229.376-512 512-512 512 229.376 512 512S794.624 896 512 896z m0-999.424C243.712-103.424 24.576 115.712 24.576 384S243.712 871.424 512 871.424c268.288 0 487.424-219.136 487.424-487.424S780.288-103.424 512-103.424z m245.76 729.088H354.304c-20.48 0-34.816-16.384-34.816-34.816v-38.912h346.112c30.72 0 55.296-24.576 55.296-55.296V240.64H757.76c20.48 0 34.816 16.384 34.816 34.816V588.8c2.048 20.48-14.336 36.864-34.816 36.864z m-92.16-92.16H268.288c-22.528 0-38.912-18.432-38.912-38.912v-305.152c0-22.528 18.432-38.912 38.912-38.912h43.008l8.192-47.104c0-4.096 6.144-6.144 8.192-4.096l65.536 49.152h270.336c22.528 0 38.912 18.432 38.912 38.912v307.2c2.048 20.48-14.336 38.912-36.864 38.912zM354.304 326.656c-14.336 0-24.576 10.24-24.576 24.576s10.24 24.576 24.576 24.576 24.576-10.24 24.576-24.576-10.24-24.576-24.576-24.576z m116.736 0c-14.336 0-24.576 10.24-24.576 24.576s10.24 24.576 24.576 24.576 24.576-10.24 24.576-24.576-12.288-24.576-24.576-24.576z m116.736 0c-14.336 0-24.576 10.24-24.576 24.576s10.24 24.576 24.576 24.576 24.576-10.24 24.576-24.576-12.288-24.576-24.576-24.576z"  horiz-adv-x="1024" />

    
    <glyph glyph-name="renmai_haoyou_icon_weixin" unicode="&#58939;" d="M512 896C229.376 896 0 666.624 0 384s229.376-512 512-512 512 229.376 512 512S794.624 896 512 896z m0-999.424C243.712-103.424 24.576 115.712 24.576 384 24.576 652.288 243.712 871.424 512 871.424c268.288 0 487.424-219.136 487.424-487.424 0-268.288-219.136-487.424-487.424-487.424z m126.976 577.536c-106.496 0-190.464-75.776-190.464-169.984 0-94.208 83.968-169.984 190.464-169.984 20.48 0 43.008 6.144 63.488 10.24h6.144l43.008-24.576c6.144-4.096 14.336 2.048 12.288 10.24l-10.24 34.816c0 4.096 0 6.144 2.048 8.192 43.008 34.816 73.728 79.872 73.728 131.072 0 92.16-90.112 169.984-190.464 169.984z m-61.44-141.312c-10.24 0-22.528 12.288-22.528 22.528 0 12.288 12.288 22.528 22.528 22.528 16.384 0 28.672-12.288 28.672-22.528-2.048-10.24-12.288-22.528-28.672-22.528z m122.88 0c-10.24 0-22.528 12.288-22.528 22.528 0 12.288 10.24 22.528 22.528 22.528 16.384 0 28.672-12.288 28.672-22.528 0-10.24-12.288-22.528-28.672-22.528z m-266.24-32.768c0 102.4 83.968 184.32 190.464 184.32h10.24c6.144 0 10.24 4.096 8.192 10.24-24.576 88.064-118.784 153.6-223.232 153.6-122.88 0-225.28-88.064-225.28-198.656 0-61.44 32.768-114.688 86.016-153.6 2.048-2.048 4.096-6.144 2.048-10.24l-14.336-45.056c-2.048-6.144 4.096-12.288 10.24-10.24l59.392 30.72c2.048 0 4.096 2.048 4.096 0 26.624-6.144 49.152-10.24 75.776-10.24h10.24c4.096 0 8.192 4.096 8.192 10.24-2.048 12.288-2.048 26.624-2.048 38.912z m69.632 249.856c16.384 0 28.672-12.288 28.672-28.672 0-18.432-10.24-28.672-28.672-28.672-16.384 0-32.768 12.288-32.768 28.672-2.048 16.384 16.384 28.672 32.768 28.672z m-157.696-59.392c-16.384 0-34.816 12.288-34.816 28.672 0 18.432 16.384 28.672 34.816 28.672s28.672-12.288 28.672-28.672c0-16.384-12.288-28.672-28.672-28.672z"  horiz-adv-x="1024" />

    
    <glyph glyph-name="renmai_renmaizhuizong_guanlian" unicode="&#58940;" d="M425.984 287.744h-49.152c-55.296 0-100.352 43.008-100.352 96.256s45.056 96.256 100.352 96.256h49.152c14.336 0 24.576 10.24 24.576 24.576 0 12.288-10.24 24.576-24.576 24.576h-49.152c-83.968 0-149.504-63.488-149.504-143.36 0-38.912 16.384-75.776 45.056-100.352 26.624-26.624 65.536-43.008 106.496-43.008h49.152c14.336 0 24.576 10.24 24.576 24.576-2.048 10.24-14.336 20.48-26.624 20.48zM649.216 527.36h-45.056c-14.336 0-24.576-10.24-24.576-24.576 0-12.288 10.24-24.576 24.576-24.576h45.056c55.296 0 100.352-43.008 100.352-96.256s-45.056-96.256-100.352-96.256h-45.056c-14.336 0-24.576-10.24-24.576-24.576 0-6.144 2.048-12.288 8.192-16.384 4.096-4.096 10.24-6.144 18.432-6.144h45.056c83.968 0 149.504 63.488 151.552 143.36-4.096 81.92-71.68 145.408-153.6 145.408z m-266.24-143.36c0-6.144 2.048-12.288 8.192-16.384 4.096-4.096 10.24-6.144 18.432-6.144h212.992c14.336 0 24.576 10.24 24.576 24.576 0 12.288-10.24 24.576-24.576 24.576H407.552c-14.336-2.048-24.576-14.336-24.576-26.624z"  horiz-adv-x="1024" />

    
    <glyph glyph-name="renmai_renmaizhuizong_huokebaowen" unicode="&#58941;" d="M512-128C229.376-128 0 101.376 0 384S229.376 896 512 896s512-229.376 512-512-229.376-512-512-512z m0 1003.52C241.664 875.52 20.48 654.336 20.48 384s221.184-491.52 491.52-491.52 491.52 221.184 491.52 491.52S782.336 875.52 512 875.52zM684.032 543.744v22.528c0 14.336-6.144 26.624-16.384 36.864s-22.528 16.384-36.864 16.384H329.728c-28.672 0-53.248-24.576-53.248-53.248v-374.784c0-14.336 6.144-26.624 16.384-36.864s22.528-16.384 36.864-16.384h376.832c14.336 0 20.48 6.144 26.624 12.288 10.24 10.24 12.288 26.624 12.288 40.96V482.304c2.048 38.912-45.056 61.44-61.44 61.44z m24.576-342.016c0-12.288-14.336-24.576-24.576-24.576h-348.16c-12.288 0-22.528 10.24-22.528 22.528V560.128c0 12.288 10.24 22.528 22.528 22.528h288.768c6.144 0 12.288-2.048 14.336-6.144 4.096-4.096 6.144-10.24 6.144-14.336v-294.912c0-12.288 6.144-24.576 16.384-24.576 12.288 0 20.48 8.192 20.48 18.432V492.544c6.144 0 24.576-10.24 24.576-24.576l2.048-266.24z m-120.832 317.44H372.736c-10.24 0-18.432-8.192-18.432-18.432s8.192-18.432 18.432-18.432h217.088c10.24 0 18.432 8.192 18.432 18.432 0 8.192-10.24 18.432-20.48 18.432z m0-102.4H372.736c-10.24 0-18.432-8.192-18.432-18.432s8.192-18.432 18.432-18.432h217.088c10.24 0 18.432 8.192 18.432 18.432s-10.24 18.432-20.48 18.432z m-126.976-100.352h-90.112c-10.24 0-18.432-8.192-18.432-18.432s8.192-18.432 18.432-18.432h90.112c10.24 0 18.432 8.192 18.432 18.432 0 8.192-8.192 18.432-18.432 18.432z"  horiz-adv-x="1024" />

    
    <glyph glyph-name="renmai_renmaizhuizong_huokemingpian" unicode="&#58942;" d="M512-128C229.376-128 0 101.376 0 384S229.376 896 512 896s512-229.376 512-512-229.376-512-512-512z m0 1003.52C241.664 875.52 20.48 654.336 20.48 384s221.184-491.52 491.52-491.52 491.52 221.184 491.52 491.52S782.336 875.52 512 875.52zM458.752 375.808c16.384 14.336 28.672 34.816 28.672 57.344 0 40.96-32.768 73.728-73.728 73.728s-73.728-32.768-73.728-73.728c0-22.528 10.24-45.056 28.672-57.344-45.056-18.432-77.824-61.44-77.824-114.688H327.68c0 47.104 38.912 86.016 86.016 86.016s86.016-38.912 86.016-86.016h36.864c0 51.2-32.768 96.256-77.824 114.688z m-45.056 20.48c-20.48 0-36.864 16.384-36.864 36.864s16.384 36.864 36.864 36.864 36.864-16.384 36.864-36.864-16.384-36.864-36.864-36.864z m301.056 0h-122.88c-10.24 0-18.432-8.192-18.432-18.432s8.192-18.432 18.432-18.432h122.88c10.24 0 18.432 8.192 18.432 18.432s-8.192 18.432-18.432 18.432z m0 86.016h-122.88c-10.24 0-18.432-8.192-18.432-18.432s8.192-18.432 18.432-18.432h122.88c10.24 0 18.432 8.192 18.432 18.432s-8.192 18.432-18.432 18.432z m55.296 147.456H253.952c-26.624 0-49.152-22.528-49.152-49.152v-393.216c0-26.624 22.528-49.152 49.152-49.152h516.096c26.624 0 49.152 22.528 49.152 49.152V580.608c0 26.624-22.528 49.152-49.152 49.152z m12.288-430.08c0-14.336-10.24-24.576-24.576-24.576H266.24c-14.336 0-24.576 10.24-24.576 24.576V568.32c0 14.336 10.24 24.576 24.576 24.576h491.52c14.336 0 24.576-10.24 24.576-24.576v-368.64z m-116.736 110.592h-73.728c-10.24 0-18.432-8.192-18.432-18.432s8.192-18.432 18.432-18.432h73.728c10.24 0 18.432 8.192 18.432 18.432s-8.192 18.432-18.432 18.432z"  horiz-adv-x="1024" />

    
    <glyph glyph-name="renmai_renmaizhuizong_zhuizong" unicode="&#58943;" d="M759.808 402.432h-135.168c-10.24 0-18.432-8.192-18.432-18.432s8.192-18.432 18.432-18.432h135.168c10.24 0 18.432 8.192 18.432 18.432s-8.192 18.432-18.432 18.432z m-358.4 0H266.24c-10.24 0-18.432-8.192-18.432-18.432s8.192-18.432 18.432-18.432h135.168c10.24 0 18.432 8.192 18.432 18.432s-8.192 18.432-18.432 18.432z m110.592-110.592c-10.24 0-18.432-8.192-18.432-18.432V138.24c0-10.24 8.192-18.432 18.432-18.432s18.432 8.192 18.432 18.432v135.168c0 10.24-8.192 18.432-18.432 18.432zM512 650.24c-10.24 0-18.432-8.192-18.432-18.432v-135.168c0-10.24 8.192-18.432 18.432-18.432s18.432 8.192 18.432 18.432v135.168c0 10.24-8.192 18.432-18.432 18.432zM512 138.24c-135.168 0-245.76 110.592-245.76 245.76s110.592 245.76 245.76 245.76 245.76-110.592 245.76-245.76-110.592-245.76-245.76-245.76z m0 450.56c-112.64 0-204.8-92.16-204.8-204.8s92.16-204.8 204.8-204.8 204.8 92.16 204.8 204.8-92.16 204.8-204.8 204.8z"  horiz-adv-x="1024" />

    
    <glyph glyph-name="renmai_renmaizhuizong_jingzhunhuoke" unicode="&#58944;" d="M512-128C229.376-128 0 101.376 0 384S229.376 896 512 896s512-229.376 512-512-229.376-512-512-512z m0 1003.52C241.664 875.52 20.48 654.336 20.48 384s221.184-491.52 491.52-491.52 491.52 221.184 491.52 491.52S782.336 875.52 512 875.52zM456.704 285.696c4.096 4.096 6.144 10.24 6.144 16.384 0 12.288-10.24 22.528-22.528 22.528-12.288 0-22.528-10.24-22.528-22.528 0-6.144 2.048-12.288 6.144-16.384l-24.576-88.064c-2.048-8.192 0-16.384 6.144-20.48l24.576-26.624c2.048-2.048 6.144-4.096 8.192-4.096 4.096 0 6.144 2.048 8.192 4.096l24.576 26.624c6.144 6.144 8.192 14.336 6.144 20.48l-20.48 88.064z m73.728 83.968c30.72 26.624 47.104 63.488 47.104 102.4 0 75.776-61.44 135.168-135.168 135.168S307.2 547.84 307.2 472.064c0-38.912 16.384-75.776 47.104-102.4-94.208-30.72-159.744-118.784-159.744-219.136 0-32.768 26.624-59.392 59.392-59.392h376.832c32.768 0 59.392 26.624 59.392 59.392 0 100.352-65.536 188.416-159.744 219.136z m-180.224 102.4c0 51.2 40.96 92.16 92.16 92.16s92.16-40.96 92.16-92.16-40.96-92.16-92.16-92.16-92.16 43.008-92.16 92.16z m280.576-337.92H253.952c-8.192 0-16.384 6.144-16.384 16.384 0 102.4 83.968 186.368 186.368 186.368h36.864c102.4 0 186.368-83.968 186.368-186.368 0-8.192-8.192-16.384-16.384-16.384z m38.912 305.152c28.672 26.624 47.104 63.488 47.104 102.4 0 75.776-61.44 135.168-135.168 135.168-26.624 0-53.248-8.192-75.776-22.528-6.144-4.096-10.24-12.288-10.24-18.432 0-8.192 6.144-14.336 12.288-18.432 6.144-4.096 14.336-2.048 20.48 2.048 18.432 12.288 38.912 16.384 61.44 14.336 40.96-4.096 73.728-36.864 79.872-79.872 6.144-45.056-22.528-88.064-67.584-100.352-4.096 0-6.144-4.096-6.144-8.192-2.048-8.192-4.096-18.432-6.144-26.624-2.048-2.048 0-6.144 2.048-8.192 2.048-2.048 4.096-4.096 8.192-4.096 102.4 0 184.32-83.968 186.368-186.368 0-4.096-2.048-8.192-4.096-12.288-2.048-2.048-6.144-4.096-10.24-4.096h-36.864c-6.144 0-12.288-2.048-16.384-8.192-4.096-4.096-6.144-10.24-6.144-16.384 2.048-10.24 10.24-18.432 20.48-18.432h36.864c32.768 0 59.392 26.624 59.392 59.392 0 98.304-65.536 188.416-159.744 219.136z"  horiz-adv-x="1024" />

    
    <glyph glyph-name="renmai_renmaizhuizong_zhuizongjiaocheng" unicode="&#58945;" d="M235.52 656.384v-546.816c0-30.72 24.576-55.296 55.296-55.296h458.752c24.576 0 38.912 14.336 38.912 43.008 0 18.432-16.384 38.912-38.912 38.912H344.064c-14.336 0-26.624 12.288-26.624 26.624 0 14.336 12.288 26.624 26.624 26.624h389.12c30.72 0 55.296 24.576 55.296 55.296v409.6c0 30.72-24.576 55.296-55.296 55.296h-192.512v-260.096c0-4.096-2.048-6.144-4.096-10.24-6.144-6.144-14.336-6.144-20.48 0-4.096 4.096-59.392 49.152-59.392 49.152s-55.296-45.056-59.392-49.152c-6.144-6.144-14.336-6.144-20.48 0-2.048 2.048-4.096 6.144-4.096 10.24V711.68h-81.92c-30.72 0-55.296-24.576-55.296-55.296z m0 0"  horiz-adv-x="1024" />

    
    <glyph glyph-name="home_music" unicode="&#58946;" d="M512-56.32C268.288-56.32 71.68 140.288 71.68 384S268.288 824.32 512 824.32 952.32 627.712 952.32 384 755.712-56.32 512-56.32z m0 860.16C280.576 803.84 92.16 615.424 92.16 384S280.576-35.84 512-35.84 931.84 152.576 931.84 384 743.424 803.84 512 803.84zM516.096 642.048l26.624-2.048c8.192-98.304 151.552-110.592 131.072-239.616-2.048-12.288-8.192-30.72-18.432-43.008-10.24-14.336-14.336-18.432-24.576-24.576-6.144-2.048 4.096 16.384 6.144 20.48 12.288 22.528 12.288 53.248 6.144 77.824-10.24 36.864-65.536 81.92-98.304 81.92l-8.192-227.328c-2.048-55.296-4.096-77.824-22.528-102.4-43.008-59.392-122.88-79.872-157.696-22.528-6.144 10.24-16.384 32.768-10.24 51.2 14.336 59.392 92.16 98.304 155.648 63.488l14.336 366.592z"  horiz-adv-x="1024" />

    
    <glyph glyph-name="arrow" unicode="&#58948;" d="M221.184 348.16c-20.992-20.992-54.784-20.992-75.776 0-20.992 20.992-20.992 54.784 0 75.776L474.112 752.64c10.24 10.24 24.064 15.872 37.888 15.872s27.648-5.12 37.888-15.872l328.704-328.704c20.992-20.992 20.992-54.784 0-75.776-20.992-20.992-54.784-20.992-75.776 0L512 639.488 221.184 348.16z m290.816-41.984l290.816-290.816c20.992-20.992 54.784-20.992 75.776 0 20.992 20.992 20.992 54.784 0 75.776L549.888 419.84c-10.24 10.24-24.064 15.872-37.888 15.872s-27.648-5.12-37.888-15.872l-328.704-328.704c-20.992-20.992-20.992-54.784 0-75.776 20.992-20.992 54.784-20.992 75.776 0l290.816 290.816z"  horiz-adv-x="1024" />

    
    <glyph glyph-name="hot" unicode="&#58949;" d="M905.216 609.28h-696.32c-32.768 0-59.392-26.624-59.392-59.392v-110.592L57.344 384l90.112-53.248V220.16c0-32.768 26.624-59.392 59.392-59.392h696.32c32.768 0 59.392 26.624 59.392 59.392V547.84c4.096 32.768-22.528 61.44-57.344 61.44zM446.464 271.36h-32.768v88.064h-102.4v-88.064h-32.768v200.704h32.768v-83.968h102.4v83.968h32.768v-200.704z m200.704 26.624c-18.432-20.48-40.96-28.672-71.68-28.672s-55.296 10.24-71.68 30.72c-16.384 18.432-24.576 43.008-24.576 73.728s8.192 55.296 24.576 73.728c16.384 20.48 40.96 30.72 71.68 30.72s55.296-10.24 71.68-30.72c16.384-18.432 24.576-43.008 24.576-73.728 0-32.768-8.192-57.344-24.576-75.776z m204.8 145.408h-65.536v-172.032h-32.768v172.032h-65.536v28.672h163.84v-28.672zM573.44 447.488c-20.48 0-36.864-6.144-49.152-20.48-10.24-14.336-16.384-30.72-16.384-55.296 0-22.528 6.144-40.96 16.384-53.248 10.24-14.336 26.624-20.48 49.152-20.48s36.864 6.144 47.104 20.48c10.24 12.288 16.384 30.72 16.384 55.296 0 24.576-6.144 43.008-16.384 55.296-10.24 12.288-24.576 18.432-47.104 18.432z"  horiz-adv-x="1024" />

    
    <glyph glyph-name="tuiguang" unicode="&#58950;" d="M512 896C229.376 896 0 666.624 0 384s229.376-512 512-512 512 229.376 512 512S794.624 896 512 896z m-169.984-802.816c0-16.384-18.432-30.72-34.816-30.72-16.384 0-34.816 14.336-34.816 30.72V592.896c0 16.384 18.432 30.72 34.816 30.72 16.384 0 34.816-14.336 34.816-30.72v-499.712z m450.56 219.136s-61.44-32.768-122.88-32.768c-98.304 0-98.304 40.96-196.608 40.96-57.344 0-100.352-26.624-100.352-26.624V596.992s43.008 26.624 100.352 26.624c98.304 0 98.304-40.96 196.608-40.96 61.44 0 122.88 32.768 122.88 32.768v-303.104z"  horiz-adv-x="1024" />

    
    <glyph glyph-name="xifen" unicode="&#58951;" d="M512 896C229.376 896 0 666.624 0 384s229.376-512 512-512 512 229.376 512 512S794.624 896 512 896z m-32.768-804.864c-165.888 0-292.864 20.48-292.864 67.584 0 90.112 86.016 169.984 212.992 194.56-86.016 38.912-122.88 139.264-83.968 223.232 26.624 61.44 88.064 100.352 153.6 100.352 94.208 0 167.936-75.776 167.936-167.936 0-65.536-36.864-124.928-96.256-151.552 20.48-4.096 38.912-8.192 57.344-16.384-18.432-16.384-28.672-38.912-28.672-63.488 0-83.968 81.92-133.12 126.976-165.888-51.2-18.432-131.072-20.48-217.088-20.48z m249.856 49.152l-4.096-2.048-4.096 2.048c-26.624 22.528-108.544 61.44-108.544 135.168 0 34.816 28.672 65.536 63.488 65.536 20.48 0 36.864-10.24 49.152-22.528 12.288 14.336 28.672 22.528 49.152 22.528 34.816 0 63.488-28.672 63.488-65.536 2.048-73.728-79.872-112.64-108.544-135.168z"  horiz-adv-x="1024" />

    
    <glyph glyph-name="kaitong_icon_" unicode="&#58954;" d="M112.64 576v-51.2h716.8v51.2h-716.8z m256-204.8h460.8v51.2h-460.8v-51.2z m153.6-153.6h307.2v51.2h-307.2v-51.2z"  horiz-adv-x="1024" />

    
    <glyph glyph-name="kaitong_icon_1" unicode="&#58955;" d="M670.72 501.76h-40.96v-232.96h40.96c35.84 0 64 10.24 84.48 33.28 20.48 20.48 30.72 51.2 30.72 87.04s-10.24 64-33.28 84.48c-20.48 17.92-48.64 28.16-81.92 28.16zM332.8 501.76l-7.68-30.72-40.96-125.44h94.72l-40.96 125.44c-2.56 7.68-5.12 17.92-5.12 30.72zM870.4 896H153.6C69.12 896 0 826.88 0 742.4v-716.8c0-84.48 69.12-153.6 153.6-153.6h716.8c84.48 0 153.6 69.12 153.6 153.6V742.4c0 84.48-69.12 153.6-153.6 153.6zM422.4 204.8l-25.6 81.92h-130.56l-25.6-81.92H156.16l130.56 358.4h89.6l128-358.4h-81.92z m391.68 51.2c-35.84-33.28-81.92-51.2-138.24-51.2h-122.88V563.2h122.88c128 0 192-58.88 192-174.08 0-56.32-17.92-99.84-53.76-133.12z"  horiz-adv-x="1024" />

    
    <glyph glyph-name="kaitong_icon_2" unicode="&#58956;" d="M512 537.6c-53.76 0-99.84-46.08-99.84-104.96s43.52-104.96 99.84-104.96c53.76 0 99.84 46.08 99.84 104.96 0 56.32-46.08 104.96-99.84 104.96zM870.4 896H153.6C69.12 896 0 826.88 0 742.4v-716.8c0-84.48 69.12-153.6 153.6-153.6h716.8c84.48 0 153.6 69.12 153.6 153.6V742.4c0 84.48-69.12 153.6-153.6 153.6z m-194.56-634.88l-161.28-171.52-166.4 174.08c-89.6 94.72-89.6 248.32 0 343.04 43.52 46.08 102.4 71.68 161.28 71.68s117.76-23.04 161.28-71.68l2.56-2.56c92.16-94.72 92.16-248.32 2.56-343.04z"  horiz-adv-x="1024" />

    
    <glyph glyph-name="kaitong_icon_3" unicode="&#58957;" d="M655.36 437.76c28.16 0 51.2 23.04 51.2 51.2s-23.04 51.2-51.2 51.2-51.2-23.04-51.2-51.2c-2.56-30.72 20.48-51.2 51.2-51.2zM634.88 363.52c-20.48 0-61.44-53.76-61.44-53.76-30.72 30.72-102.4 122.88-122.88 122.88-20.48 0-104.96-112.64-153.6-179.2h435.2c-2.56 0-76.8 110.08-97.28 110.08zM870.4 896H153.6C69.12 896 0 826.88 0 742.4v-716.8c0-84.48 69.12-153.6 153.6-153.6h716.8c84.48 0 153.6 69.12 153.6 153.6V742.4c0 84.48-69.12 153.6-153.6 153.6z m-74.24-698.88c0-35.84-7.68-40.96-43.52-40.96H271.36c-35.84 0-43.52 7.68-43.52 40.96V570.88c0 35.84 7.68 40.96 43.52 40.96h483.84c35.84 0 43.52-7.68 43.52-40.96v-373.76h-2.56z"  horiz-adv-x="1024" />

    
    <glyph glyph-name="kaitong_icon_4" unicode="&#58958;" d="M512 161.28c-15.36 0-30.72-12.8-30.72-30.72s12.8-30.72 30.72-30.72c15.36 0 30.72 12.8 30.72 30.72s-15.36 30.72-30.72 30.72zM652.8 624.64h-281.6c-7.68 0-12.8-5.12-12.8-12.8v-409.6c0-7.68 5.12-12.8 12.8-12.8h281.6c7.68 0 12.8 5.12 12.8 12.8v409.6c-2.56 7.68-7.68 12.8-12.8 12.8zM488.96 647.68h46.08c7.68 0 12.8 5.12 12.8 12.8s-5.12 12.8-12.8 12.8h-46.08c-7.68 0-12.8-5.12-12.8-12.8 0-5.12 5.12-12.8 12.8-12.8zM870.4 896H153.6C69.12 896 0 826.88 0 742.4v-716.8c0-84.48 69.12-153.6 153.6-153.6h716.8c84.48 0 153.6 69.12 153.6 153.6V742.4c0 84.48-69.12 153.6-153.6 153.6z m-158.72-752.64c0-40.96-30.72-71.68-69.12-71.68H384c-38.4 0-69.12 33.28-69.12 71.68V624.64c0 40.96 30.72 71.68 69.12 71.68h256c38.4 0 69.12-33.28 69.12-71.68l2.56-481.28z"  horiz-adv-x="1024" />

    
    <glyph glyph-name="kaitong_icon_5" unicode="&#58959;" d="M870.4 896H153.6C69.12 896 0 826.88 0 742.4v-716.8c0-84.48 69.12-153.6 153.6-153.6h716.8c84.48 0 153.6 69.12 153.6 153.6V742.4c0 84.48-69.12 153.6-153.6 153.6zM245.76 609.28c0 15.36 17.92 30.72 35.84 30.72h107.52c17.92 0 43.52-10.24 56.32-23.04l20.48-17.92c12.8-12.8 38.4-23.04 56.32-23.04h227.84c17.92 0 35.84-12.8 40.96-25.6l7.68-25.6h-563.2l10.24 84.48zM844.8 448l-28.16-289.28c-2.56-17.92-5.12-30.72-35.84-30.72h-537.6c-30.72 0-35.84 15.36-35.84 30.72L179.2 448c-2.56 17.92 0 30.72 30.72 30.72h604.16c30.72 2.56 30.72-12.8 30.72-30.72z"  horiz-adv-x="1024" />

    
    <glyph glyph-name="kaitong_icon_6" unicode="&#58960;" d="M870.4 896H153.6C69.12 896 0 826.88 0 742.4v-716.8c0-84.48 69.12-153.6 153.6-153.6h716.8c84.48 0 153.6 69.12 153.6 153.6V742.4c0 84.48-69.12 153.6-153.6 153.6zM225.28 156.16s-53.76 10.24-69.12 23.04c0 15.36-2.56 30.72 0 46.08 7.68 56.32 110.08 81.92 138.24 107.52 2.56 2.56 5.12 12.8 5.12 15.36 0 12.8-2.56 17.92-2.56 17.92s-53.76 35.84-53.76 128c2.56 38.4 20.48 107.52 94.72 107.52h5.12c12.8 0 23.04-2.56 33.28-5.12-12.8-28.16-40.96-104.96 38.4-217.6 23.04-20.48 12.8-35.84 0-46.08-7.68-5.12-15.36-7.68-23.04-10.24-110.08-40.96-153.6-97.28-161.28-130.56 0-20.48-5.12-35.84-5.12-35.84z m281.6-53.76c-69.12 0-120.32 2.56-158.72 7.68-135.68 17.92-94.72 64-89.6 92.16 10.24 66.56 148.48 99.84 186.88 130.56 5.12 2.56 10.24 12.8 10.24 15.36 0 17.92-7.68 28.16-7.68 28.16s-69.12 46.08-66.56 158.72C384 581.12 409.6 665.6 501.76 665.6h5.12c89.6 0 117.76-84.48 120.32-133.12 2.56-120.32-66.56-158.72-66.56-158.72s-5.12-5.12-5.12-23.04c0-5.12 2.56-15.36 7.68-20.48 38.4-30.72 179.2-64 186.88-130.56 10.24-35.84 74.24-97.28-243.2-97.28z m360.96 79.36c-17.92-12.8-87.04-25.6-87.04-25.6s-2.56 17.92-10.24 46.08c-7.68 33.28-33.28 66.56-125.44 110.08 15.36-7.68-87.04 20.48-56.32 66.56 79.36 64 61.44 163.84 43.52 215.04 10.24 5.12 25.6 7.68 40.96 7.68h5.12c74.24 0 97.28-69.12 97.28-107.52 0-92.16-56.32-128-56.32-128s-2.56-5.12-2.56-17.92c0-2.56 2.56-12.8 5.12-15.36 30.72-25.6 135.68-51.2 143.36-104.96 7.68-15.36 5.12-30.72 2.56-46.08z"  horiz-adv-x="1024" />

    
    <glyph glyph-name="kaitong_icon_7" unicode="&#58961;" d="M870.4 896H153.6C69.12 896 0 826.88 0 742.4v-716.8c0-84.48 69.12-153.6 153.6-153.6h716.8c84.48 0 153.6 69.12 153.6 153.6V742.4c0 84.48-69.12 153.6-153.6 153.6z m-168.96-714.24c0-28.16-23.04-46.08-53.76-46.08H207.36C176.64 135.68 153.6 153.6 153.6 181.76v12.8c0 25.6 20.48 48.64 46.08 58.88l110.08 46.08s30.72 7.68 38.4 17.92c5.12 5.12 7.68 25.6 0 38.4s-61.44 81.92-61.44 140.8c0 94.72 64 171.52 143.36 171.52s143.36-76.8 143.36-171.52c0-61.44-61.44-128-66.56-145.92-5.12-15.36-5.12-30.72 0-35.84 7.68-7.68 30.72-17.92 30.72-17.92l120.32-46.08c25.6-7.68 46.08-33.28 46.08-58.88l-2.56-10.24zM768 486.4h-153.6c-15.36 0-25.6 10.24-25.6 25.6s10.24 25.6 25.6 25.6h153.6c15.36 0 25.6-10.24 25.6-25.6s-10.24-25.6-25.6-25.6z m23.04-92.16h-135.68c-15.36 0-25.6 10.24-25.6 25.6v2.56c0 15.36 10.24 25.6 25.6 25.6h135.68c15.36 0 25.6-10.24 25.6-25.6v-2.56c0-15.36-10.24-25.6-25.6-25.6z m0-107.52h-81.92c-15.36 0-25.6 10.24-25.6 25.6v2.56c0 15.36 10.24 25.6 25.6 25.6h81.92c15.36 0 25.6-10.24 25.6-25.6v-2.56c0-12.8-10.24-25.6-25.6-25.6z"  horiz-adv-x="1024" />

    
    <glyph glyph-name="kaitong_icon_8" unicode="&#58962;" d="M514.56 486.4a171.52 171.52 0 1 1 0-343.04 171.52 171.52 0 0 1 0 343.04zM512 220.16c-53.76 0-94.72 40.96-94.72 94.72 0 51.2 43.52 94.72 94.72 94.72 7.68 0 12.8 0 20.48-2.56-2.56-5.12-5.12-12.8-5.12-17.92 0-23.04 20.48-43.52 43.52-43.52 10.24 0 20.48 2.56 28.16 10.24 5.12-12.8 7.68-25.6 7.68-38.4 0-56.32-40.96-97.28-94.72-97.28zM870.4 896H153.6C69.12 896 0 826.88 0 742.4v-716.8c0-84.48 69.12-153.6 153.6-153.6h716.8c84.48 0 153.6 69.12 153.6 153.6V742.4c0 84.48-69.12 153.6-153.6 153.6z m-33.28-591.36c-2.56-2.56-35.84-51.2-94.72-99.84-76.8-66.56-156.16-102.4-230.4-102.4s-153.6 35.84-230.4 102.4c-56.32 48.64-92.16 97.28-94.72 99.84-5.12 5.12-5.12 15.36 0 20.48 2.56 2.56 30.72 43.52 81.92 89.6l28.16 23.04c23.04 17.92 46.08 35.84 71.68 48.64l30.72 15.36c30.72 12.8 64 23.04 94.72 23.04h35.84c30.72-2.56 61.44-10.24 94.72-23.04l30.72-15.36c23.04-12.8 48.64-28.16 71.68-48.64l28.16-23.04c51.2-46.08 81.92-87.04 81.92-89.6 5.12-7.68 5.12-15.36 0-20.48z m-330.24 243.2c-10.24 0-17.92 7.68-17.92 17.92V698.88c0 10.24 7.68 17.92 17.92 17.92 10.24 0 17.92-7.68 17.92-17.92v-133.12c-2.56-10.24-10.24-17.92-17.92-17.92z m156.16-15.36c-7.68 5.12-10.24 15.36-7.68 23.04l38.4 71.68c5.12 7.68 15.36 10.24 23.04 7.68 7.68-5.12 10.24-15.36 7.68-23.04l-38.4-71.68c-5.12-10.24-15.36-12.8-23.04-7.68z m122.88-61.44c-5.12 7.68-5.12 17.92 2.56 23.04l38.4 28.16c7.68 5.12 17.92 5.12 23.04-2.56 5.12-7.68 5.12-17.92-2.56-23.04l-38.4-28.16c-5.12-7.68-15.36-5.12-23.04 2.56z m-476.16 151.04c7.68 5.12 17.92 0 23.04-7.68l38.4-71.68c5.12-7.68 0-17.92-7.68-23.04-7.68-5.12-17.92 0-23.04 7.68l-38.4 71.68c-5.12 10.24 0 20.48 7.68 23.04z m-133.12-107.52c7.68 7.68 17.92 7.68 23.04 0l33.28-33.28c7.68-7.68 7.68-17.92 0-23.04-7.68-7.68-17.92-7.68-23.04 0l-33.28 33.28c-7.68 5.12-7.68 15.36 0 23.04z"  horiz-adv-x="1024" />

    
    <glyph glyph-name="kaitong_icon_9" unicode="&#58963;" d="M373.76 552.96h-2.56c-2.56-15.36-5.12-30.72-10.24-43.52l-58.88-181.76h138.24l-58.88 179.2c-2.56 12.8-5.12 28.16-7.68 46.08zM870.4 896H153.6C69.12 896 0 826.88 0 742.4v-716.8c0-84.48 69.12-153.6 153.6-153.6h716.8c84.48 0 153.6 69.12 153.6 153.6V742.4c0 84.48-69.12 153.6-153.6 153.6zM504.32 125.44l-38.4 117.76h-186.88l-38.4-117.76H120.32l189.44 517.12h130.56l184.32-517.12h-120.32z m296.96 0H691.2V642.56h110.08v-517.12z"  horiz-adv-x="1024" />

    
    <glyph glyph-name="kaitong_icon_10" unicode="&#58964;" d="M596.48 465.92h166.4v166.4h-166.4v-166.4z m61.44 104.96c5.12 5.12 10.24 7.68 17.92 7.68 5.12 0 12.8-2.56 17.92-7.68 5.12-5.12 7.68-10.24 7.68-17.92 0-5.12-2.56-12.8-7.68-17.92s-10.24-7.68-17.92-7.68c-5.12 0-12.8 2.56-17.92 7.68s-7.68 10.24-7.68 17.92c0 5.12 5.12 12.8 7.68 17.92zM261.12 465.92h166.4v166.4h-166.4v-166.4z m64 104.96c5.12 5.12 10.24 7.68 17.92 7.68 5.12 0 12.8-2.56 17.92-7.68 5.12-5.12 7.68-10.24 7.68-17.92 0-5.12-2.56-12.8-7.68-17.92-5.12-5.12-10.24-7.68-17.92-7.68-5.12 0-12.8 2.56-17.92 7.68s-7.68 10.24-7.68 17.92c0 5.12 2.56 12.8 7.68 17.92zM870.4 896H153.6C69.12 896 0 826.88 0 742.4v-716.8c0-84.48 69.12-153.6 153.6-153.6h716.8c84.48 0 153.6 69.12 153.6 153.6V742.4c0 84.48-69.12 153.6-153.6 153.6zM483.84 102.4c0-12.8-10.24-25.6-25.6-25.6H230.4c-12.8 0-25.6 10.24-25.6 25.6v227.84c0 12.8 10.24 25.6 25.6 25.6h227.84c12.8 0 25.6-10.24 25.6-25.6V102.4z m0 335.36c0-12.8-10.24-25.6-25.6-25.6H230.4c-12.8 0-25.6 10.24-25.6 25.6V665.6c0 12.8 10.24 25.6 25.6 25.6h227.84c12.8 0 25.6-10.24 25.6-25.6v-227.84zM709.12 76.8h-56.32v53.76h56.32V76.8z m110.08 25.6c0-12.8-10.24-25.6-25.6-25.6h-28.16v56.32H819.2V102.4z m0 87.04h-166.4v56.32h-56.32V76.8h-30.72c-12.8 0-25.6 10.24-25.6 25.6v227.84c0 12.8 10.24 25.6 25.6 25.6h140.8v-110.08h56.32v110.08H793.6c12.8 0 25.6-10.24 25.6-25.6v-140.8z m0 248.32c0-12.8-10.24-25.6-25.6-25.6h-227.84c-12.8 0-25.6 10.24-25.6 25.6V665.6c0 12.8 10.24 25.6 25.6 25.6H793.6c12.8 0 25.6-10.24 25.6-25.6v-227.84zM261.12 133.12h166.4v166.4h-166.4v-166.4z m64 102.4c5.12 5.12 10.24 7.68 17.92 7.68 5.12 0 12.8-2.56 17.92-7.68 5.12-5.12 7.68-10.24 7.68-17.92 0-5.12-2.56-12.8-7.68-17.92-5.12-5.12-10.24-7.68-17.92-7.68-5.12 0-12.8 2.56-17.92 7.68-5.12 5.12-7.68 10.24-7.68 17.92 0 5.12 2.56 12.8 7.68 17.92z"  horiz-adv-x="1024" />

    
    <glyph glyph-name="lianxikefukaitong" unicode="&#58966;" d="M666.138947 248.724211c-44.193684 0-80.303158-36.109474-80.303158-80.303158s35.570526-80.303158 80.303158-80.303158c44.193684 0 80.303158 36.109474 80.303158 80.303158-0.538947 44.732632-36.109474 80.303158-80.303158 80.303158z m32.336842-74.374737v-12.934737h-22.635789v-10.24h22.635789v-13.473684h-22.635789v-18.324211h-20.48v18.324211h-23.174737v13.473684h23.174737v10.24h-23.174737v12.934737h18.863158l-24.791579 43.654737h21.557895c9.701053-20.48 16.168421-33.953684 18.32421-40.421053h0.538948c0.538947 1.077895 0.538947 2.155789 1.077894 3.772631 0.538947 2.155789 3.772632 8.623158 9.162106 19.941053l8.08421 16.707369h20.48l-25.330526-43.654737h18.32421zM862.315789 896H161.684211C72.218947 896 0 823.781053 0 734.315789v-700.631578c0-89.465263 72.218947-161.684211 161.684211-161.684211h700.631578c89.465263 0 161.684211 72.218947 161.684211 161.684211V734.315789c0 89.465263-72.218947 161.684211-161.684211 161.684211zM267.856842 560.235789c12.395789 107.789474 103.477895 191.326316 213.423158 191.326316s201.027368-83.536842 213.423158-191.326316c22.635789-4.850526 39.343158-25.330526 39.343158-49.583157 0-28.025263-22.635789-50.661053-50.661053-50.661053-3.772632 0-8.623158 1.077895-12.395789 1.077895v75.452631c0 105.094737-84.614737 189.709474-189.709474 189.709474S291.570526 641.616842 291.570526 536.522105v-74.913684c-3.772632 0-8.623158-1.077895-12.395789-1.077895-28.025263 0-50.661053 22.635789-50.661053 50.661053 0 23.713684 16.168421 44.193684 39.343158 49.04421z m377.263158-23.713684c0-91.082105-73.296842-164.378947-164.378947-164.378947S316.362105 445.44 316.362105 536.522105s73.296842 164.378947 164.378948 164.378948c91.621053 0 164.378947-73.296842 164.378947-164.378948z m-181.086316-472.117894H210.189474c-32.875789 0-58.206316 29.103158-52.816842 61.44 18.863158 123.957895 92.698947 226.896842 192.943157 275.941052 33.953684-32.875789 79.764211-53.355789 130.964211-53.355789s97.549474 20.48 130.964211 53.355789c38.265263-18.863158 72.757895-45.271579 101.861052-78.147368 8.623158-9.701053 1.616842-24.791579-10.778947-24.791579H507.688421c-24.252632 0-43.654737-19.402105-43.654737-44.193684v-170.846316c-0.538947-7.006316 0-19.402105 0-19.402105z m379.418948 19.402105c0-10.778947-8.623158-19.402105-19.402106-19.402105H507.688421c-10.778947 0-19.402105 8.623158-19.402105 19.402105V254.652632c0 10.778947 8.623158 19.402105 19.402105 19.402105H824.589474c10.778947 0 19.402105-8.623158 19.402105-19.402105v-170.846316z"  horiz-adv-x="1024" />

    
    <glyph glyph-name="gouxuan" unicode="&#58967;" d="M0-90.074074h832.474074C938.666667-90.074074 1024-4.740741 1024 99.555556V858.074074L0-90.074074z m676.977778 144.118518l-54.992593 1.896297-68.266666 102.4-54.992593 17.066666 7.585185 43.614815 79.644445-15.17037 70.162963-85.333333 208.592592 267.377777 49.303704-37.925926-237.037037-293.925926z"  horiz-adv-x="1024" />

    
    <glyph glyph-name="xiayishou" unicode="&#58887;" d="M766.5664 302.2848V7.168c0-38.2976 31.1296-69.4272 69.4272-69.4272s69.4272 31.1296 69.4272 69.4272V760.832c0 38.2976-31.1296 69.4272-69.4272 69.4272s-69.4272-31.1296-69.4272-69.4272v-294.912C607.0272 564.4288 213.1968 807.936 189.44 822.4768c-35.4304 22.1184-70.8608-5.5296-70.8608-42.3936v-792.576c0-41.3696 38.912-60.6208 70.0416-42.3936 33.3824 20.48 421.4784 260.096 577.9456 357.1712z"  horiz-adv-x="1024" />

    
    <glyph glyph-name="shangyishou" unicode="&#58889;" d="M257.437 465.75V760.926c0 38.343-31.083 69.426-69.426 69.426s-69.426-31.083-69.426-69.426v-753.85c0-38.343 31.083-69.426 69.426-69.426s69.426 31.083 69.426 69.426v295.04C417.054 203.66 810.732-39.942 834.48-54.476c35.468-22.07 70.936 5.517 70.936 42.3v792.67c0 41.38-38.928 60.69-70.07 42.3-33.415-20.405-421.47-260.04-577.908-357.043z"  horiz-adv-x="1024" />

    
    <glyph glyph-name="bofangliang1" unicode="&#58890;" d="M882.667 810.667H141.333c-56.469 0-102.25-46.315-102.25-103.467v-646.4c0-57.12 45.781-103.467 102.25-103.467h741.334c56.469 0 102.25 46.315 102.25 103.467V707.2c0 57.12-45.781 103.467-102.25 103.467zM701.643 341.909L454.539 183.563a55.744 55.744 0 0 0-55.872-2.944c-18.294 9.056-28.896 25.6-28.896 45.013V542.347c0 19.413 10.57 35.989 28.853 45.045a55.83 55.83 0 0 0 55.883-2.944L701.61 426.101c15.285-9.845 23.658-24.714 23.658-42.112s-8.373-32.266-23.616-42.08z"  horiz-adv-x="1024" />

    
    <glyph glyph-name="yueliangsvg" unicode="&#58891;" d="M89.076123 437.718704l116.174377 61.295294 117.403013-61.295294-22.934542 129.143314 94.604986 90.373017-130.371951 19.385149-58.701506 116.174377-57.609385-116.174377-130.235436-19.385149L111.87415 566.862018zM481.284095 384.068258l50.374084 26.62045 50.920144-26.62045-9.82909 55.971203 40.95454 39.316358-56.517265 8.327423-25.528329 50.510599-24.982269-50.510599-56.517264-8.327423 40.954539-39.316358zM702.848154 896c24.982269-65.117718 38.633782-135.696041 38.633782-209.414211 0-325.588588-266.341021-589.472337-594.932943-589.472337-44.367418 0-87.506199 4.914545-129.143314 13.924543 97.471804-144.023464 263.337688-238.90148 451.45554-238.90148 299.923744 0 543.057192 240.949207 543.057192 538.142648 0 214.192241-126.276496 399.170244-309.070257 485.720837z"  horiz-adv-x="1024" />

    
    <glyph glyph-name="deletezhuanhuan" unicode="&#58892;" d="M512-127.453867C229.649067-127.453867 0 102.1952 0 384.273067 0 666.487467 229.649067 896 512 896s512-229.512533 512-511.726933c0-282.077867-229.649067-511.726933-512-511.726934z m0 999.287467c-268.970667 0-487.8336-218.7264-487.8336-487.560533S243.029333-103.287467 512-103.287467s487.8336 218.7264 487.8336 487.560534S780.970667 871.8336 512 871.8336zM658.773333 568.32h-293.546666c-25.941333 0-47.5136-21.2992-47.5136-46.967467v-17.066666h388.437333v17.066666c0 25.531733-21.572267 46.967467-47.377067 46.967467z m-86.289066 29.764267l8.6016-51.2H442.914133l8.6016 51.2h120.968534z m4.232533 34.133333h-129.4336c-12.970667 0-25.941333-12.834133-25.941333-25.668267l-12.970667-64.034133c0-12.834133 8.6016-25.668267 21.572267-25.668267h159.744c12.970667 0 21.572267 12.834133 21.572266 25.668267l-8.6016 64.034133c0 12.970667-12.970667 25.668267-25.941333 25.668267z m90.658133-162.065067H356.625067c-17.2032 0-30.173867-12.834133-30.173867-29.9008l25.941333-290.133333c0-17.066667 17.2032-29.9008 34.542934-29.9008h241.664c17.2032 0 34.542933 12.834133 34.542933 29.9008l25.941333 290.133333c8.465067 17.066667-4.5056 29.9008-21.7088 29.9008zM447.2832 184.251733h-47.5136l-17.2032 221.866667h64.7168v-221.866667z m99.259733 0h-64.7168V406.1184h64.7168v-221.866667z m77.687467 0h-47.5136V406.1184h64.7168l-17.2032-221.866667z m0 0"  horiz-adv-x="1024" />

    
    <glyph glyph-name="dizhi" unicode="&#58893;" d="M452.1984 896C249.0368 896 119.330133 732.16 119.330133 528.9984s283.306667-494.933333 332.731734-494.933333 332.731733 291.908267 332.731733 494.933333C784.930133 732.16 655.36 896 452.1984 896z m0-477.866667C372.053333 418.133333 307.2 482.986667 307.2 563.131733s64.853333 144.9984 144.9984 144.9984 145.134933-64.853333 145.134933-144.9984S532.48 418.133333 452.1984 418.133333zM196.1984 153.531733C74.9568 128 0 87.04 0 25.6 0-69.973333 204.8-128 460.8-128S921.6-69.973333 921.6 25.6c0 63.0784-80.145067 105.813333-209.988267 131.345067-18.705067 3.413333-35.771733-8.6016-39.185066-27.306667s8.6016-35.771733 27.306666-39.185067c97.348267-18.705067 155.2384-49.5616 155.2384-64.853333 0-3.413333-5.188267-8.6016-18.705066-18.705067-18.705067-11.8784-46.148267-23.893333-81.92-34.133333-76.868267-22.1184-180.906667-34.133333-291.908267-34.133333s-216.6784 11.8784-291.908267 34.133333c-35.771733 10.24-63.0784 22.254933-81.92 34.133333-15.291733 10.24-20.48 15.291733-20.48 18.705067 0 13.653333 52.974933 42.5984 141.7216 61.44 18.705067 3.413333 30.72 22.1184 25.668267 40.96-1.774933 18.8416-20.48 30.72-39.3216 25.531733z m0 0"  horiz-adv-x="1024" />

    
    <glyph glyph-name="xialazhuanhuan" unicode="&#58894;" d="M1009.2544 541.559467L537.258667 114.4832c-14.882133-13.380267-39.048533-13.380267-53.930667 0L11.195733 541.559467c-14.882133 13.5168-14.882133 35.362133 0 48.7424l13.5168 12.151466c10.376533 9.4208 35.908267 10.786133 35.908267 10.786134h900.3008s24.9856-1.774933 34.952533-10.786134l13.5168-12.151466c14.7456-13.380267 14.7456-35.2256-0.136533-48.7424z"  horiz-adv-x="1024" />

    
    <glyph glyph-name="icon_zanzhuanhuan" unicode="&#58895;" d="M942.08 483.259733H667.648C774.007467 863.6416 594.466133 883.029333 594.466133 883.029333c-76.049067 0-60.347733-58.299733-66.082133-67.9936 0-185.9584-203.9808-331.776-203.9808-331.776v-527.428266c0-52.0192 73.3184-70.8608 101.9904-70.8608h412.330667c38.775467 0 70.4512 98.577067 70.4512 98.577066 101.9904 335.872 101.9904 435.8144 101.9904 435.8144-0.136533 69.495467-69.085867 63.8976-69.085867 63.8976zM211.7632 483.1232H47.377067C13.5168 483.1232 12.970667 450.901333 12.970667 450.901333l33.860266-531.933866c0-33.860267 35.089067-33.860267 35.089067-33.860267h142.267733c29.627733 0 29.354667 22.391467 29.354667 22.391467V442.709333c0 40.96-41.7792 40.413867-41.7792 40.413867z"  horiz-adv-x="1024" />

    
    <glyph glyph-name="icon_sczhuanhuan" unicode="&#58973;" d="M702.464 825.5488c-71.406933 0-136.123733-26.897067-190.190933-78.370133-54.340267 52.0192-117.9648 78.370133-190.0544 78.370133C150.050133 825.5488 9.966933 674.679467 9.966933 489.2672c0-108.544 48.196267-184.183467 83.421867-239.479467 82.602667-130.798933 253.678933-266.376533 348.296533-335.598933l4.369067-3.2768c18.8416-14.7456 41.506133-22.528 65.672533-22.528 22.664533 0 44.919467 7.3728 64.170667 21.435733l1.2288 0.955734c0.8192 0.546133 2.321067 1.774933 4.5056 3.413333 94.6176 69.358933 265.693867 205.2096 349.115733 336.008533 35.089067 55.159467 83.285333 130.6624 83.285334 239.2064 0 185.275733-139.810133 336.145067-311.569067 336.145067z"  horiz-adv-x="1024" />

    
    <glyph glyph-name="icon_rqzhuanhuan" unicode="&#58974;" d="M508.996267 511.658667c-54.4768 0-98.577067-44.6464-98.577067-99.669334s44.100267-100.215467 98.577067-100.215466c54.4768 0 97.8944 45.192533 97.8944 100.215466 0 55.022933-43.4176 99.669333-97.8944 99.669334z m2.321066 206.574933c-270.062933 0-489.335467-185.685333-489.335466-318.941867s219.272533-317.8496 489.335466-317.8496c271.291733 0 490.564267 188.8256 490.564267 317.8496S782.609067 718.2336 511.317333 718.2336z m-1.774933-525.1072c-114.551467 0-206.984533 94.890667-206.984533 211.3536 0 117.5552 92.433067 211.899733 206.984533 211.899733 115.0976 0 208.213333-94.344533 208.213333-211.899733 0-116.462933-93.115733-211.3536-208.213333-211.3536z"  horiz-adv-x="1024" />

    


  </font>
</defs>
</svg>
